<svg xmlns="http://www.w3.org/2000/svg" width="512" height="512" viewBox="0 0 512 512">
<rect x="6" y="6" width="500" height="500" rx="72" fill="#33b4c4" stroke="#2a97a5" stroke-width="6"/>
<!-- drop shadow -->
<rect x="55.12" y="118.12" width="18" height="18" rx="3" fill="#5a2913"/>
<rect x="73.12" y="118.12" width="18" height="18" rx="3" fill="#5a2913"/>
<rect x="91.12" y="118.12" width="18" height="18" rx="3" fill="#5a2913"/>
<rect x="109.12" y="118.12" width="18" height="18" rx="3" fill="#5a2913"/>
<rect x="127.12" y="118.12" width="18" height="18" rx="3" fill="#5a2913"/>
<rect x="55.12" y="136.12" width="18" height="18" rx="3" fill="#5a2913"/>
<rect x="55.12" y="154.12" width="18" height="18" rx="3" fill="#5a2913"/>
<rect x="55.12" y="172.12" width="18" height="18" rx="3" fill="#5a2913"/>
<rect x="73.12" y="172.12" width="18" height="18" rx="3" fill="#5a2913"/>
<rect x="91.12" y="172.12" width="18" height="18" rx="3" fill="#5a2913"/>
<rect x="109.12" y="172.12" width="18" height="18" rx="3" fill="#5a2913"/>
<rect x="127.12" y="172.12" width="18" height="18" rx="3" fill="#5a2913"/>
<rect x="127.12" y="190.12" width="18" height="18" rx="3" fill="#5a2913"/>
<rect x="127.12" y="208.12" width="18" height="18" rx="3" fill="#5a2913"/>
<rect x="55.12" y="226.12" width="18" height="18" rx="3" fill="#5a2913"/>
<rect x="73.12" y="226.12" width="18" height="18" rx="3" fill="#5a2913"/>
<rect x="91.12" y="226.12" width="18" height="18" rx="3" fill="#5a2913"/>
<rect x="109.12" y="226.12" width="18" height="18" rx="3" fill="#5a2913"/>
<rect x="127.12" y="226.12" width="18" height="18" rx="3" fill="#5a2913"/>
<rect x="163.12" y="118.12" width="18" height="18" rx="3" fill="#5a2913"/>
<rect x="163.12" y="136.12" width="18" height="18" rx="3" fill="#5a2913"/>
<rect x="163.12" y="154.12" width="18" height="18" rx="3" fill="#5a2913"/>
<rect x="163.12" y="172.12" width="18" height="18" rx="3" fill="#5a2913"/>
<rect x="163.12" y="190.12" width="18" height="18" rx="3" fill="#5a2913"/>
<rect x="163.12" y="208.12" width="18" height="18" rx="3" fill="#5a2913"/>
<rect x="163.12" y="226.12" width="18" height="18" rx="3" fill="#5a2913"/>
<rect x="181.12" y="226.12" width="18" height="18" rx="3" fill="#5a2913"/>
<rect x="199.12" y="226.12" width="18" height="18" rx="3" fill="#5a2913"/>
<rect x="217.12" y="226.12" width="18" height="18" rx="3" fill="#5a2913"/>
<rect x="235.12" y="226.12" width="18" height="18" rx="3" fill="#5a2913"/>
<rect x="271.12" y="118.12" width="18" height="18" rx="3" fill="#5a2913"/>
<rect x="289.12" y="118.12" width="18" height="18" rx="3" fill="#5a2913"/>
<rect x="307.12" y="118.12" width="18" height="18" rx="3" fill="#5a2913"/>
<rect x="325.12" y="118.12" width="18" height="18" rx="3" fill="#5a2913"/>
<rect x="343.12" y="118.12" width="18" height="18" rx="3" fill="#5a2913"/>
<rect x="271.12" y="136.12" width="18" height="18" rx="3" fill="#5a2913"/>
<rect x="343.12" y="136.12" width="18" height="18" rx="3" fill="#5a2913"/>
<rect x="271.12" y="154.12" width="18" height="18" rx="3" fill="#5a2913"/>
<rect x="343.12" y="154.12" width="18" height="18" rx="3" fill="#5a2913"/>
<rect x="271.12" y="172.12" width="18" height="18" rx="3" fill="#5a2913"/>
<rect x="343.12" y="172.12" width="18" height="18" rx="3" fill="#5a2913"/>
<rect x="271.12" y="190.12" width="18" height="18" rx="3" fill="#5a2913"/>
<rect x="343.12" y="190.12" width="18" height="18" rx="3" fill="#5a2913"/>
<rect x="271.12" y="208.12" width="18" height="18" rx="3" fill="#5a2913"/>
<rect x="343.12" y="208.12" width="18" height="18" rx="3" fill="#5a2913"/>
<rect x="271.12" y="226.12" width="18" height="18" rx="3" fill="#5a2913"/>
<rect x="289.12" y="226.12" width="18" height="18" rx="3" fill="#5a2913"/>
<rect x="307.12" y="226.12" width="18" height="18" rx="3" fill="#5a2913"/>
<rect x="325.12" y="226.12" width="18" height="18" rx="3" fill="#5a2913"/>
<rect x="343.12" y="226.12" width="18" height="18" rx="3" fill="#5a2913"/>
<rect x="379.12" y="118.12" width="18" height="18" rx="3" fill="#5a2913"/>
<rect x="397.12" y="118.12" width="18" height="18" rx="3" fill="#5a2913"/>
<rect x="415.12" y="118.12" width="18" height="18" rx="3" fill="#5a2913"/>
<rect x="433.12" y="118.12" width="18" height="18" rx="3" fill="#5a2913"/>
<rect x="451.12" y="118.12" width="18" height="18" rx="3" fill="#5a2913"/>
<rect x="379.12" y="136.12" width="18" height="18" rx="3" fill="#5a2913"/>
<rect x="451.12" y="136.12" width="18" height="18" rx="3" fill="#5a2913"/>
<rect x="379.12" y="154.12" width="18" height="18" rx="3" fill="#5a2913"/>
<rect x="451.12" y="154.12" width="18" height="18" rx="3" fill="#5a2913"/>
<rect x="379.12" y="172.12" width="18" height="18" rx="3" fill="#5a2913"/>
<rect x="397.12" y="172.12" width="18" height="18" rx="3" fill="#5a2913"/>
<rect x="415.12" y="172.12" width="18" height="18" rx="3" fill="#5a2913"/>
<rect x="433.12" y="172.12" width="18" height="18" rx="3" fill="#5a2913"/>
<rect x="451.12" y="172.12" width="18" height="18" rx="3" fill="#5a2913"/>
<rect x="379.12" y="190.12" width="18" height="18" rx="3" fill="#5a2913"/>
<rect x="379.12" y="208.12" width="18" height="18" rx="3" fill="#5a2913"/>
<rect x="379.12" y="226.12" width="18" height="18" rx="3" fill="#5a2913"/>
<rect x="55.12" y="280.12" width="18" height="18" rx="3" fill="#5a2913"/>
<rect x="73.12" y="280.12" width="18" height="18" rx="3" fill="#5a2913"/>
<rect x="91.12" y="280.12" width="18" height="18" rx="3" fill="#5a2913"/>
<rect x="109.12" y="280.12" width="18" height="18" rx="3" fill="#5a2913"/>
<rect x="127.12" y="280.12" width="18" height="18" rx="3" fill="#5a2913"/>
<rect x="55.12" y="298.12" width="18" height="18" rx="3" fill="#5a2913"/>
<rect x="55.12" y="316.12" width="18" height="18" rx="3" fill="#5a2913"/>
<rect x="55.12" y="334.12" width="18" height="18" rx="3" fill="#5a2913"/>
<rect x="73.12" y="334.12" width="18" height="18" rx="3" fill="#5a2913"/>
<rect x="91.12" y="334.12" width="18" height="18" rx="3" fill="#5a2913"/>
<rect x="109.12" y="334.12" width="18" height="18" rx="3" fill="#5a2913"/>
<rect x="55.12" y="352.12" width="18" height="18" rx="3" fill="#5a2913"/>
<rect x="55.12" y="370.12" width="18" height="18" rx="3" fill="#5a2913"/>
<rect x="55.12" y="388.12" width="18" height="18" rx="3" fill="#5a2913"/>
<rect x="181.12" y="280.12" width="18" height="18" rx="3" fill="#5a2913"/>
<rect x="199.12" y="280.12" width="18" height="18" rx="3" fill="#5a2913"/>
<rect x="217.12" y="280.12" width="18" height="18" rx="3" fill="#5a2913"/>
<rect x="163.12" y="298.12" width="18" height="18" rx="3" fill="#5a2913"/>
<rect x="235.12" y="298.12" width="18" height="18" rx="3" fill="#5a2913"/>
<rect x="163.12" y="316.12" width="18" height="18" rx="3" fill="#5a2913"/>
<rect x="235.12" y="316.12" width="18" height="18" rx="3" fill="#5a2913"/>
<rect x="163.12" y="334.12" width="18" height="18" rx="3" fill="#5a2913"/>
<rect x="181.12" y="334.12" width="18" height="18" rx="3" fill="#5a2913"/>
<rect x="199.12" y="334.12" width="18" height="18" rx="3" fill="#5a2913"/>
<rect x="217.12" y="334.12" width="18" height="18" rx="3" fill="#5a2913"/>
<rect x="235.12" y="334.12" width="18" height="18" rx="3" fill="#5a2913"/>
<rect x="163.12" y="352.12" width="18" height="18" rx="3" fill="#5a2913"/>
<rect x="235.12" y="352.12" width="18" height="18" rx="3" fill="#5a2913"/>
<rect x="163.12" y="370.12" width="18" height="18" rx="3" fill="#5a2913"/>
<rect x="235.12" y="370.12" width="18" height="18" rx="3" fill="#5a2913"/>
<rect x="163.12" y="388.12" width="18" height="18" rx="3" fill="#5a2913"/>
<rect x="235.12" y="388.12" width="18" height="18" rx="3" fill="#5a2913"/>
<rect x="271.12" y="280.12" width="18" height="18" rx="3" fill="#5a2913"/>
<rect x="289.12" y="280.12" width="18" height="18" rx="3" fill="#5a2913"/>
<rect x="307.12" y="280.12" width="18" height="18" rx="3" fill="#5a2913"/>
<rect x="325.12" y="280.12" width="18" height="18" rx="3" fill="#5a2913"/>
<rect x="343.12" y="280.12" width="18" height="18" rx="3" fill="#5a2913"/>
<rect x="271.12" y="298.12" width="18" height="18" rx="3" fill="#5a2913"/>
<rect x="343.12" y="298.12" width="18" height="18" rx="3" fill="#5a2913"/>
<rect x="271.12" y="316.12" width="18" height="18" rx="3" fill="#5a2913"/>
<rect x="343.12" y="316.12" width="18" height="18" rx="3" fill="#5a2913"/>
<rect x="271.12" y="334.12" width="18" height="18" rx="3" fill="#5a2913"/>
<rect x="289.12" y="334.12" width="18" height="18" rx="3" fill="#5a2913"/>
<rect x="307.12" y="334.12" width="18" height="18" rx="3" fill="#5a2913"/>
<rect x="325.12" y="334.12" width="18" height="18" rx="3" fill="#5a2913"/>
<rect x="343.12" y="334.12" width="18" height="18" rx="3" fill="#5a2913"/>
<rect x="271.12" y="352.12" width="18" height="18" rx="3" fill="#5a2913"/>
<rect x="307.12" y="352.12" width="18" height="18" rx="3" fill="#5a2913"/>
<rect x="271.12" y="370.12" width="18" height="18" rx="3" fill="#5a2913"/>
<rect x="325.12" y="370.12" width="18" height="18" rx="3" fill="#5a2913"/>
<rect x="271.12" y="388.12" width="18" height="18" rx="3" fill="#5a2913"/>
<rect x="343.12" y="388.12" width="18" height="18" rx="3" fill="#5a2913"/>
<rect x="379.12" y="280.12" width="18" height="18" rx="3" fill="#5a2913"/>
<rect x="451.12" y="280.12" width="18" height="18" rx="3" fill="#5a2913"/>
<rect x="379.12" y="298.12" width="18" height="18" rx="3" fill="#5a2913"/>
<rect x="397.12" y="298.12" width="18" height="18" rx="3" fill="#5a2913"/>
<rect x="433.12" y="298.12" width="18" height="18" rx="3" fill="#5a2913"/>
<rect x="451.12" y="298.12" width="18" height="18" rx="3" fill="#5a2913"/>
<rect x="379.12" y="316.12" width="18" height="18" rx="3" fill="#5a2913"/>
<rect x="415.12" y="316.12" width="18" height="18" rx="3" fill="#5a2913"/>
<rect x="451.12" y="316.12" width="18" height="18" rx="3" fill="#5a2913"/>
<rect x="379.12" y="334.12" width="18" height="18" rx="3" fill="#5a2913"/>
<rect x="415.12" y="334.12" width="18" height="18" rx="3" fill="#5a2913"/>
<rect x="451.12" y="334.12" width="18" height="18" rx="3" fill="#5a2913"/>
<rect x="379.12" y="352.12" width="18" height="18" rx="3" fill="#5a2913"/>
<rect x="451.12" y="352.12" width="18" height="18" rx="3" fill="#5a2913"/>
<rect x="379.12" y="370.12" width="18" height="18" rx="3" fill="#5a2913"/>
<rect x="451.12" y="370.12" width="18" height="18" rx="3" fill="#5a2913"/>
<rect x="379.12" y="388.12" width="18" height="18" rx="3" fill="#5a2913"/>
<rect x="451.12" y="388.12" width="18" height="18" rx="3" fill="#5a2913"/>
<!-- wood face -->
<rect x="49.00" y="112.00" width="18" height="18" rx="3" fill="#e9631f"/>
<rect x="67.00" y="112.00" width="18" height="18" rx="3" fill="#e9631f"/>
<rect x="85.00" y="112.00" width="18" height="18" rx="3" fill="#e9631f"/>
<rect x="103.00" y="112.00" width="18" height="18" rx="3" fill="#e9631f"/>
<rect x="121.00" y="112.00" width="18" height="18" rx="3" fill="#e9631f"/>
<rect x="49.00" y="130.00" width="18" height="18" rx="3" fill="#e9631f"/>
<rect x="49.00" y="148.00" width="18" height="18" rx="3" fill="#e9631f"/>
<rect x="49.00" y="166.00" width="18" height="18" rx="3" fill="#e9631f"/>
<rect x="67.00" y="166.00" width="18" height="18" rx="3" fill="#e9631f"/>
<rect x="85.00" y="166.00" width="18" height="18" rx="3" fill="#e9631f"/>
<rect x="103.00" y="166.00" width="18" height="18" rx="3" fill="#e9631f"/>
<rect x="121.00" y="166.00" width="18" height="18" rx="3" fill="#e9631f"/>
<rect x="121.00" y="184.00" width="18" height="18" rx="3" fill="#e9631f"/>
<rect x="121.00" y="202.00" width="18" height="18" rx="3" fill="#e9631f"/>
<rect x="49.00" y="220.00" width="18" height="18" rx="3" fill="#e9631f"/>
<rect x="67.00" y="220.00" width="18" height="18" rx="3" fill="#e9631f"/>
<rect x="85.00" y="220.00" width="18" height="18" rx="3" fill="#e9631f"/>
<rect x="103.00" y="220.00" width="18" height="18" rx="3" fill="#e9631f"/>
<rect x="121.00" y="220.00" width="18" height="18" rx="3" fill="#e9631f"/>
<rect x="157.00" y="112.00" width="18" height="18" rx="3" fill="#e9631f"/>
<rect x="157.00" y="130.00" width="18" height="18" rx="3" fill="#e9631f"/>
<rect x="157.00" y="148.00" width="18" height="18" rx="3" fill="#e9631f"/>
<rect x="157.00" y="166.00" width="18" height="18" rx="3" fill="#e9631f"/>
<rect x="157.00" y="184.00" width="18" height="18" rx="3" fill="#e9631f"/>
<rect x="157.00" y="202.00" width="18" height="18" rx="3" fill="#e9631f"/>
<rect x="157.00" y="220.00" width="18" height="18" rx="3" fill="#e9631f"/>
<rect x="175.00" y="220.00" width="18" height="18" rx="3" fill="#e9631f"/>
<rect x="193.00" y="220.00" width="18" height="18" rx="3" fill="#e9631f"/>
<rect x="211.00" y="220.00" width="18" height="18" rx="3" fill="#e9631f"/>
<rect x="229.00" y="220.00" width="18" height="18" rx="3" fill="#e9631f"/>
<rect x="265.00" y="112.00" width="18" height="18" rx="3" fill="#e9631f"/>
<rect x="283.00" y="112.00" width="18" height="18" rx="3" fill="#e9631f"/>
<rect x="301.00" y="112.00" width="18" height="18" rx="3" fill="#e9631f"/>
<rect x="319.00" y="112.00" width="18" height="18" rx="3" fill="#e9631f"/>
<rect x="337.00" y="112.00" width="18" height="18" rx="3" fill="#e9631f"/>
<rect x="265.00" y="130.00" width="18" height="18" rx="3" fill="#e9631f"/>
<rect x="337.00" y="130.00" width="18" height="18" rx="3" fill="#e9631f"/>
<rect x="265.00" y="148.00" width="18" height="18" rx="3" fill="#e9631f"/>
<rect x="337.00" y="148.00" width="18" height="18" rx="3" fill="#e9631f"/>
<rect x="265.00" y="166.00" width="18" height="18" rx="3" fill="#e9631f"/>
<rect x="337.00" y="166.00" width="18" height="18" rx="3" fill="#e9631f"/>
<rect x="265.00" y="184.00" width="18" height="18" rx="3" fill="#e9631f"/>
<rect x="337.00" y="184.00" width="18" height="18" rx="3" fill="#e9631f"/>
<rect x="265.00" y="202.00" width="18" height="18" rx="3" fill="#e9631f"/>
<rect x="337.00" y="202.00" width="18" height="18" rx="3" fill="#e9631f"/>
<rect x="265.00" y="220.00" width="18" height="18" rx="3" fill="#e9631f"/>
<rect x="283.00" y="220.00" width="18" height="18" rx="3" fill="#e9631f"/>
<rect x="301.00" y="220.00" width="18" height="18" rx="3" fill="#e9631f"/>
<rect x="319.00" y="220.00" width="18" height="18" rx="3" fill="#e9631f"/>
<rect x="337.00" y="220.00" width="18" height="18" rx="3" fill="#e9631f"/>
<rect x="373.00" y="112.00" width="18" height="18" rx="3" fill="#e9631f"/>
<rect x="391.00" y="112.00" width="18" height="18" rx="3" fill="#e9631f"/>
<rect x="409.00" y="112.00" width="18" height="18" rx="3" fill="#e9631f"/>
<rect x="427.00" y="112.00" width="18" height="18" rx="3" fill="#e9631f"/>
<rect x="445.00" y="112.00" width="18" height="18" rx="3" fill="#e9631f"/>
<rect x="373.00" y="130.00" width="18" height="18" rx="3" fill="#e9631f"/>
<rect x="445.00" y="130.00" width="18" height="18" rx="3" fill="#e9631f"/>
<rect x="373.00" y="148.00" width="18" height="18" rx="3" fill="#e9631f"/>
<rect x="445.00" y="148.00" width="18" height="18" rx="3" fill="#e9631f"/>
<rect x="373.00" y="166.00" width="18" height="18" rx="3" fill="#e9631f"/>
<rect x="391.00" y="166.00" width="18" height="18" rx="3" fill="#e9631f"/>
<rect x="409.00" y="166.00" width="18" height="18" rx="3" fill="#e9631f"/>
<rect x="427.00" y="166.00" width="18" height="18" rx="3" fill="#e9631f"/>
<rect x="445.00" y="166.00" width="18" height="18" rx="3" fill="#e9631f"/>
<rect x="373.00" y="184.00" width="18" height="18" rx="3" fill="#e9631f"/>
<rect x="373.00" y="202.00" width="18" height="18" rx="3" fill="#e9631f"/>
<rect x="373.00" y="220.00" width="18" height="18" rx="3" fill="#e9631f"/>
<rect x="49.00" y="274.00" width="18" height="18" rx="3" fill="#e9631f"/>
<rect x="67.00" y="274.00" width="18" height="18" rx="3" fill="#e9631f"/>
<rect x="85.00" y="274.00" width="18" height="18" rx="3" fill="#e9631f"/>
<rect x="103.00" y="274.00" width="18" height="18" rx="3" fill="#e9631f"/>
<rect x="121.00" y="274.00" width="18" height="18" rx="3" fill="#e9631f"/>
<rect x="49.00" y="292.00" width="18" height="18" rx="3" fill="#e9631f"/>
<rect x="49.00" y="310.00" width="18" height="18" rx="3" fill="#e9631f"/>
<rect x="49.00" y="328.00" width="18" height="18" rx="3" fill="#e9631f"/>
<rect x="67.00" y="328.00" width="18" height="18" rx="3" fill="#e9631f"/>
<rect x="85.00" y="328.00" width="18" height="18" rx="3" fill="#e9631f"/>
<rect x="103.00" y="328.00" width="18" height="18" rx="3" fill="#e9631f"/>
<rect x="49.00" y="346.00" width="18" height="18" rx="3" fill="#e9631f"/>
<rect x="49.00" y="364.00" width="18" height="18" rx="3" fill="#e9631f"/>
<rect x="49.00" y="382.00" width="18" height="18" rx="3" fill="#e9631f"/>
<rect x="175.00" y="274.00" width="18" height="18" rx="3" fill="#e9631f"/>
<rect x="193.00" y="274.00" width="18" height="18" rx="3" fill="#e9631f"/>
<rect x="211.00" y="274.00" width="18" height="18" rx="3" fill="#e9631f"/>
<rect x="157.00" y="292.00" width="18" height="18" rx="3" fill="#e9631f"/>
<rect x="229.00" y="292.00" width="18" height="18" rx="3" fill="#e9631f"/>
<rect x="157.00" y="310.00" width="18" height="18" rx="3" fill="#e9631f"/>
<rect x="229.00" y="310.00" width="18" height="18" rx="3" fill="#e9631f"/>
<rect x="157.00" y="328.00" width="18" height="18" rx="3" fill="#e9631f"/>
<rect x="175.00" y="328.00" width="18" height="18" rx="3" fill="#e9631f"/>
<rect x="193.00" y="328.00" width="18" height="18" rx="3" fill="#e9631f"/>
<rect x="211.00" y="328.00" width="18" height="18" rx="3" fill="#e9631f"/>
<rect x="229.00" y="328.00" width="18" height="18" rx="3" fill="#e9631f"/>
<rect x="157.00" y="346.00" width="18" height="18" rx="3" fill="#e9631f"/>
<rect x="229.00" y="346.00" width="18" height="18" rx="3" fill="#e9631f"/>
<rect x="157.00" y="364.00" width="18" height="18" rx="3" fill="#e9631f"/>
<rect x="229.00" y="364.00" width="18" height="18" rx="3" fill="#e9631f"/>
<rect x="157.00" y="382.00" width="18" height="18" rx="3" fill="#e9631f"/>
<rect x="229.00" y="382.00" width="18" height="18" rx="3" fill="#e9631f"/>
<rect x="265.00" y="274.00" width="18" height="18" rx="3" fill="#e9631f"/>
<rect x="283.00" y="274.00" width="18" height="18" rx="3" fill="#e9631f"/>
<rect x="301.00" y="274.00" width="18" height="18" rx="3" fill="#e9631f"/>
<rect x="319.00" y="274.00" width="18" height="18" rx="3" fill="#e9631f"/>
<rect x="337.00" y="274.00" width="18" height="18" rx="3" fill="#e9631f"/>
<rect x="265.00" y="292.00" width="18" height="18" rx="3" fill="#e9631f"/>
<rect x="337.00" y="292.00" width="18" height="18" rx="3" fill="#e9631f"/>
<rect x="265.00" y="310.00" width="18" height="18" rx="3" fill="#e9631f"/>
<rect x="337.00" y="310.00" width="18" height="18" rx="3" fill="#e9631f"/>
<rect x="265.00" y="328.00" width="18" height="18" rx="3" fill="#e9631f"/>
<rect x="283.00" y="328.00" width="18" height="18" rx="3" fill="#e9631f"/>
<rect x="301.00" y="328.00" width="18" height="18" rx="3" fill="#e9631f"/>
<rect x="319.00" y="328.00" width="18" height="18" rx="3" fill="#e9631f"/>
<rect x="337.00" y="328.00" width="18" height="18" rx="3" fill="#e9631f"/>
<rect x="265.00" y="346.00" width="18" height="18" rx="3" fill="#e9631f"/>
<rect x="301.00" y="346.00" width="18" height="18" rx="3" fill="#e9631f"/>
<rect x="265.00" y="364.00" width="18" height="18" rx="3" fill="#e9631f"/>
<rect x="319.00" y="364.00" width="18" height="18" rx="3" fill="#e9631f"/>
<rect x="265.00" y="382.00" width="18" height="18" rx="3" fill="#e9631f"/>
<rect x="337.00" y="382.00" width="18" height="18" rx="3" fill="#e9631f"/>
<rect x="373.00" y="274.00" width="18" height="18" rx="3" fill="#e9631f"/>
<rect x="445.00" y="274.00" width="18" height="18" rx="3" fill="#e9631f"/>
<rect x="373.00" y="292.00" width="18" height="18" rx="3" fill="#e9631f"/>
<rect x="391.00" y="292.00" width="18" height="18" rx="3" fill="#e9631f"/>
<rect x="427.00" y="292.00" width="18" height="18" rx="3" fill="#e9631f"/>
<rect x="445.00" y="292.00" width="18" height="18" rx="3" fill="#e9631f"/>
<rect x="373.00" y="310.00" width="18" height="18" rx="3" fill="#e9631f"/>
<rect x="409.00" y="310.00" width="18" height="18" rx="3" fill="#e9631f"/>
<rect x="445.00" y="310.00" width="18" height="18" rx="3" fill="#e9631f"/>
<rect x="373.00" y="328.00" width="18" height="18" rx="3" fill="#e9631f"/>
<rect x="409.00" y="328.00" width="18" height="18" rx="3" fill="#e9631f"/>
<rect x="445.00" y="328.00" width="18" height="18" rx="3" fill="#e9631f"/>
<rect x="373.00" y="346.00" width="18" height="18" rx="3" fill="#e9631f"/>
<rect x="445.00" y="346.00" width="18" height="18" rx="3" fill="#e9631f"/>
<rect x="373.00" y="364.00" width="18" height="18" rx="3" fill="#e9631f"/>
<rect x="445.00" y="364.00" width="18" height="18" rx="3" fill="#e9631f"/>
<rect x="373.00" y="382.00" width="18" height="18" rx="3" fill="#e9631f"/>
<rect x="445.00" y="382.00" width="18" height="18" rx="3" fill="#e9631f"/>
<!-- top highlight: the upper third of every pixel, one shade up -->
<rect x="49.00" y="112.00" width="18" height="5.76" rx="3" fill="#f4863b"/>
<rect x="67.00" y="112.00" width="18" height="5.76" rx="3" fill="#f4863b"/>
<rect x="85.00" y="112.00" width="18" height="5.76" rx="3" fill="#f4863b"/>
<rect x="103.00" y="112.00" width="18" height="5.76" rx="3" fill="#f4863b"/>
<rect x="121.00" y="112.00" width="18" height="5.76" rx="3" fill="#f4863b"/>
<rect x="49.00" y="130.00" width="18" height="5.76" rx="3" fill="#f4863b"/>
<rect x="49.00" y="148.00" width="18" height="5.76" rx="3" fill="#f4863b"/>
<rect x="49.00" y="166.00" width="18" height="5.76" rx="3" fill="#f4863b"/>
<rect x="67.00" y="166.00" width="18" height="5.76" rx="3" fill="#f4863b"/>
<rect x="85.00" y="166.00" width="18" height="5.76" rx="3" fill="#f4863b"/>
<rect x="103.00" y="166.00" width="18" height="5.76" rx="3" fill="#f4863b"/>
<rect x="121.00" y="166.00" width="18" height="5.76" rx="3" fill="#f4863b"/>
<rect x="121.00" y="184.00" width="18" height="5.76" rx="3" fill="#f4863b"/>
<rect x="121.00" y="202.00" width="18" height="5.76" rx="3" fill="#f4863b"/>
<rect x="49.00" y="220.00" width="18" height="5.76" rx="3" fill="#f4863b"/>
<rect x="67.00" y="220.00" width="18" height="5.76" rx="3" fill="#f4863b"/>
<rect x="85.00" y="220.00" width="18" height="5.76" rx="3" fill="#f4863b"/>
<rect x="103.00" y="220.00" width="18" height="5.76" rx="3" fill="#f4863b"/>
<rect x="121.00" y="220.00" width="18" height="5.76" rx="3" fill="#f4863b"/>
<rect x="157.00" y="112.00" width="18" height="5.76" rx="3" fill="#f4863b"/>
<rect x="157.00" y="130.00" width="18" height="5.76" rx="3" fill="#f4863b"/>
<rect x="157.00" y="148.00" width="18" height="5.76" rx="3" fill="#f4863b"/>
<rect x="157.00" y="166.00" width="18" height="5.76" rx="3" fill="#f4863b"/>
<rect x="157.00" y="184.00" width="18" height="5.76" rx="3" fill="#f4863b"/>
<rect x="157.00" y="202.00" width="18" height="5.76" rx="3" fill="#f4863b"/>
<rect x="157.00" y="220.00" width="18" height="5.76" rx="3" fill="#f4863b"/>
<rect x="175.00" y="220.00" width="18" height="5.76" rx="3" fill="#f4863b"/>
<rect x="193.00" y="220.00" width="18" height="5.76" rx="3" fill="#f4863b"/>
<rect x="211.00" y="220.00" width="18" height="5.76" rx="3" fill="#f4863b"/>
<rect x="229.00" y="220.00" width="18" height="5.76" rx="3" fill="#f4863b"/>
<rect x="265.00" y="112.00" width="18" height="5.76" rx="3" fill="#f4863b"/>
<rect x="283.00" y="112.00" width="18" height="5.76" rx="3" fill="#f4863b"/>
<rect x="301.00" y="112.00" width="18" height="5.76" rx="3" fill="#f4863b"/>
<rect x="319.00" y="112.00" width="18" height="5.76" rx="3" fill="#f4863b"/>
<rect x="337.00" y="112.00" width="18" height="5.76" rx="3" fill="#f4863b"/>
<rect x="265.00" y="130.00" width="18" height="5.76" rx="3" fill="#f4863b"/>
<rect x="337.00" y="130.00" width="18" height="5.76" rx="3" fill="#f4863b"/>
<rect x="265.00" y="148.00" width="18" height="5.76" rx="3" fill="#f4863b"/>
<rect x="337.00" y="148.00" width="18" height="5.76" rx="3" fill="#f4863b"/>
<rect x="265.00" y="166.00" width="18" height="5.76" rx="3" fill="#f4863b"/>
<rect x="337.00" y="166.00" width="18" height="5.76" rx="3" fill="#f4863b"/>
<rect x="265.00" y="184.00" width="18" height="5.76" rx="3" fill="#f4863b"/>
<rect x="337.00" y="184.00" width="18" height="5.76" rx="3" fill="#f4863b"/>
<rect x="265.00" y="202.00" width="18" height="5.76" rx="3" fill="#f4863b"/>
<rect x="337.00" y="202.00" width="18" height="5.76" rx="3" fill="#f4863b"/>
<rect x="265.00" y="220.00" width="18" height="5.76" rx="3" fill="#f4863b"/>
<rect x="283.00" y="220.00" width="18" height="5.76" rx="3" fill="#f4863b"/>
<rect x="301.00" y="220.00" width="18" height="5.76" rx="3" fill="#f4863b"/>
<rect x="319.00" y="220.00" width="18" height="5.76" rx="3" fill="#f4863b"/>
<rect x="337.00" y="220.00" width="18" height="5.76" rx="3" fill="#f4863b"/>
<rect x="373.00" y="112.00" width="18" height="5.76" rx="3" fill="#f4863b"/>
<rect x="391.00" y="112.00" width="18" height="5.76" rx="3" fill="#f4863b"/>
<rect x="409.00" y="112.00" width="18" height="5.76" rx="3" fill="#f4863b"/>
<rect x="427.00" y="112.00" width="18" height="5.76" rx="3" fill="#f4863b"/>
<rect x="445.00" y="112.00" width="18" height="5.76" rx="3" fill="#f4863b"/>
<rect x="373.00" y="130.00" width="18" height="5.76" rx="3" fill="#f4863b"/>
<rect x="445.00" y="130.00" width="18" height="5.76" rx="3" fill="#f4863b"/>
<rect x="373.00" y="148.00" width="18" height="5.76" rx="3" fill="#f4863b"/>
<rect x="445.00" y="148.00" width="18" height="5.76" rx="3" fill="#f4863b"/>
<rect x="373.00" y="166.00" width="18" height="5.76" rx="3" fill="#f4863b"/>
<rect x="391.00" y="166.00" width="18" height="5.76" rx="3" fill="#f4863b"/>
<rect x="409.00" y="166.00" width="18" height="5.76" rx="3" fill="#f4863b"/>
<rect x="427.00" y="166.00" width="18" height="5.76" rx="3" fill="#f4863b"/>
<rect x="445.00" y="166.00" width="18" height="5.76" rx="3" fill="#f4863b"/>
<rect x="373.00" y="184.00" width="18" height="5.76" rx="3" fill="#f4863b"/>
<rect x="373.00" y="202.00" width="18" height="5.76" rx="3" fill="#f4863b"/>
<rect x="373.00" y="220.00" width="18" height="5.76" rx="3" fill="#f4863b"/>
<rect x="49.00" y="274.00" width="18" height="5.76" rx="3" fill="#f4863b"/>
<rect x="67.00" y="274.00" width="18" height="5.76" rx="3" fill="#f4863b"/>
<rect x="85.00" y="274.00" width="18" height="5.76" rx="3" fill="#f4863b"/>
<rect x="103.00" y="274.00" width="18" height="5.76" rx="3" fill="#f4863b"/>
<rect x="121.00" y="274.00" width="18" height="5.76" rx="3" fill="#f4863b"/>
<rect x="49.00" y="292.00" width="18" height="5.76" rx="3" fill="#f4863b"/>
<rect x="49.00" y="310.00" width="18" height="5.76" rx="3" fill="#f4863b"/>
<rect x="49.00" y="328.00" width="18" height="5.76" rx="3" fill="#f4863b"/>
<rect x="67.00" y="328.00" width="18" height="5.76" rx="3" fill="#f4863b"/>
<rect x="85.00" y="328.00" width="18" height="5.76" rx="3" fill="#f4863b"/>
<rect x="103.00" y="328.00" width="18" height="5.76" rx="3" fill="#f4863b"/>
<rect x="49.00" y="346.00" width="18" height="5.76" rx="3" fill="#f4863b"/>
<rect x="49.00" y="364.00" width="18" height="5.76" rx="3" fill="#f4863b"/>
<rect x="49.00" y="382.00" width="18" height="5.76" rx="3" fill="#f4863b"/>
<rect x="175.00" y="274.00" width="18" height="5.76" rx="3" fill="#f4863b"/>
<rect x="193.00" y="274.00" width="18" height="5.76" rx="3" fill="#f4863b"/>
<rect x="211.00" y="274.00" width="18" height="5.76" rx="3" fill="#f4863b"/>
<rect x="157.00" y="292.00" width="18" height="5.76" rx="3" fill="#f4863b"/>
<rect x="229.00" y="292.00" width="18" height="5.76" rx="3" fill="#f4863b"/>
<rect x="157.00" y="310.00" width="18" height="5.76" rx="3" fill="#f4863b"/>
<rect x="229.00" y="310.00" width="18" height="5.76" rx="3" fill="#f4863b"/>
<rect x="157.00" y="328.00" width="18" height="5.76" rx="3" fill="#f4863b"/>
<rect x="175.00" y="328.00" width="18" height="5.76" rx="3" fill="#f4863b"/>
<rect x="193.00" y="328.00" width="18" height="5.76" rx="3" fill="#f4863b"/>
<rect x="211.00" y="328.00" width="18" height="5.76" rx="3" fill="#f4863b"/>
<rect x="229.00" y="328.00" width="18" height="5.76" rx="3" fill="#f4863b"/>
<rect x="157.00" y="346.00" width="18" height="5.76" rx="3" fill="#f4863b"/>
<rect x="229.00" y="346.00" width="18" height="5.76" rx="3" fill="#f4863b"/>
<rect x="157.00" y="364.00" width="18" height="5.76" rx="3" fill="#f4863b"/>
<rect x="229.00" y="364.00" width="18" height="5.76" rx="3" fill="#f4863b"/>
<rect x="157.00" y="382.00" width="18" height="5.76" rx="3" fill="#f4863b"/>
<rect x="229.00" y="382.00" width="18" height="5.76" rx="3" fill="#f4863b"/>
<rect x="265.00" y="274.00" width="18" height="5.76" rx="3" fill="#f4863b"/>
<rect x="283.00" y="274.00" width="18" height="5.76" rx="3" fill="#f4863b"/>
<rect x="301.00" y="274.00" width="18" height="5.76" rx="3" fill="#f4863b"/>
<rect x="319.00" y="274.00" width="18" height="5.76" rx="3" fill="#f4863b"/>
<rect x="337.00" y="274.00" width="18" height="5.76" rx="3" fill="#f4863b"/>
<rect x="265.00" y="292.00" width="18" height="5.76" rx="3" fill="#f4863b"/>
<rect x="337.00" y="292.00" width="18" height="5.76" rx="3" fill="#f4863b"/>
<rect x="265.00" y="310.00" width="18" height="5.76" rx="3" fill="#f4863b"/>
<rect x="337.00" y="310.00" width="18" height="5.76" rx="3" fill="#f4863b"/>
<rect x="265.00" y="328.00" width="18" height="5.76" rx="3" fill="#f4863b"/>
<rect x="283.00" y="328.00" width="18" height="5.76" rx="3" fill="#f4863b"/>
<rect x="301.00" y="328.00" width="18" height="5.76" rx="3" fill="#f4863b"/>
<rect x="319.00" y="328.00" width="18" height="5.76" rx="3" fill="#f4863b"/>
<rect x="337.00" y="328.00" width="18" height="5.76" rx="3" fill="#f4863b"/>
<rect x="265.00" y="346.00" width="18" height="5.76" rx="3" fill="#f4863b"/>
<rect x="301.00" y="346.00" width="18" height="5.76" rx="3" fill="#f4863b"/>
<rect x="265.00" y="364.00" width="18" height="5.76" rx="3" fill="#f4863b"/>
<rect x="319.00" y="364.00" width="18" height="5.76" rx="3" fill="#f4863b"/>
<rect x="265.00" y="382.00" width="18" height="5.76" rx="3" fill="#f4863b"/>
<rect x="337.00" y="382.00" width="18" height="5.76" rx="3" fill="#f4863b"/>
<rect x="373.00" y="274.00" width="18" height="5.76" rx="3" fill="#f4863b"/>
<rect x="445.00" y="274.00" width="18" height="5.76" rx="3" fill="#f4863b"/>
<rect x="373.00" y="292.00" width="18" height="5.76" rx="3" fill="#f4863b"/>
<rect x="391.00" y="292.00" width="18" height="5.76" rx="3" fill="#f4863b"/>
<rect x="427.00" y="292.00" width="18" height="5.76" rx="3" fill="#f4863b"/>
<rect x="445.00" y="292.00" width="18" height="5.76" rx="3" fill="#f4863b"/>
<rect x="373.00" y="310.00" width="18" height="5.76" rx="3" fill="#f4863b"/>
<rect x="409.00" y="310.00" width="18" height="5.76" rx="3" fill="#f4863b"/>
<rect x="445.00" y="310.00" width="18" height="5.76" rx="3" fill="#f4863b"/>
<rect x="373.00" y="328.00" width="18" height="5.76" rx="3" fill="#f4863b"/>
<rect x="409.00" y="328.00" width="18" height="5.76" rx="3" fill="#f4863b"/>
<rect x="445.00" y="328.00" width="18" height="5.76" rx="3" fill="#f4863b"/>
<rect x="373.00" y="346.00" width="18" height="5.76" rx="3" fill="#f4863b"/>
<rect x="445.00" y="346.00" width="18" height="5.76" rx="3" fill="#f4863b"/>
<rect x="373.00" y="364.00" width="18" height="5.76" rx="3" fill="#f4863b"/>
<rect x="445.00" y="364.00" width="18" height="5.76" rx="3" fill="#f4863b"/>
<rect x="373.00" y="382.00" width="18" height="5.76" rx="3" fill="#f4863b"/>
<rect x="445.00" y="382.00" width="18" height="5.76" rx="3" fill="#f4863b"/>
</svg>
