<svg xmlns="http://www.w3.org/2000/svg" viewBox="0 0 160 160" width="160" height="160" role="img" aria-label="dpad-down"><defs><linearGradient id="dpad_down_face" x1="0" y1="0" x2="0" y2="1"><stop offset="0" stop-color="#575757"/><stop offset="1" stop-color="#474747"/></linearGradient><clipPath id="dpad_down_clip"><path d="M56 14 h48 a2 2 0 0 1 2 2 v36 a2 2 0 0 0 2 2 h36 a2 2 0 0 1 2 2 v48 a2 2 0 0 1 -2 2 h-36 a2 2 0 0 0 -2 2 v36 a2 2 0 0 1 -2 2 h-48 a2 2 0 0 1 -2 -2 v-36 a2 2 0 0 0 -2 -2 h-36 a2 2 0 0 1 -2 -2 v-48 a2 2 0 0 1 2 -2 h36 a2 2 0 0 0 2 -2 v-36 a2 2 0 0 1 2 -2 z"/></clipPath></defs><g transform="translate(0 1)"><path d="M56 14 h48 a2 2 0 0 1 2 2 v36 a2 2 0 0 0 2 2 h36 a2 2 0 0 1 2 2 v48 a2 2 0 0 1 -2 2 h-36 a2 2 0 0 0 -2 2 v36 a2 2 0 0 1 -2 2 h-48 a2 2 0 0 1 -2 -2 v-36 a2 2 0 0 0 -2 -2 h-36 a2 2 0 0 1 -2 -2 v-48 a2 2 0 0 1 2 -2 h36 a2 2 0 0 0 2 -2 v-36 a2 2 0 0 1 2 -2 z" fill="url(#dpad_down_face)"/><g clip-path="url(#dpad_down_clip)"><path d="M56 14 h48 a2 2 0 0 1 2 2 v36 a2 2 0 0 0 2 2 h36 a2 2 0 0 1 2 2 v48 a2 2 0 0 1 -2 2 h-36 a2 2 0 0 0 -2 2 v36 a2 2 0 0 1 -2 2 h-48 a2 2 0 0 1 -2 -2 v-36 a2 2 0 0 0 -2 -2 h-36 a2 2 0 0 1 -2 -2 v-48 a2 2 0 0 1 2 -2 h36 a2 2 0 0 0 2 -2 v-36 a2 2 0 0 1 2 -2 z" fill="none" stroke="#6B6B6B" stroke-width="2"/><path d="M56 14 h48 a2 2 0 0 1 2 2 v36 a2 2 0 0 0 2 2 h36 a2 2 0 0 1 2 2 v48 a2 2 0 0 1 -2 2 h-36 a2 2 0 0 0 -2 2 v36 a2 2 0 0 1 -2 2 h-48 a2 2 0 0 1 -2 -2 v-36 a2 2 0 0 0 -2 -2 h-36 a2 2 0 0 1 -2 -2 v-48 a2 2 0 0 1 2 -2 h36 a2 2 0 0 0 2 -2 v-36 a2 2 0 0 1 2 -2 z" fill="none" stroke="#333" stroke-width="2" transform="translate(0 2)"/><rect x="54" y="94" width="52" height="52" fill="#000" opacity=".17"/></g><path d="M56 14 h48 a2 2 0 0 1 2 2 v36 a2 2 0 0 0 2 2 h36 a2 2 0 0 1 2 2 v48 a2 2 0 0 1 -2 2 h-36 a2 2 0 0 0 -2 2 v36 a2 2 0 0 1 -2 2 h-48 a2 2 0 0 1 -2 -2 v-36 a2 2 0 0 0 -2 -2 h-36 a2 2 0 0 1 -2 -2 v-48 a2 2 0 0 1 2 -2 h36 a2 2 0 0 0 2 -2 v-36 a2 2 0 0 1 2 -2 z" fill="none" stroke="#2C2C2C" stroke-width="1.5"/><circle cx="80" cy="80" r="19" fill="#4E4E4E"/><circle cx="80" cy="80" r="19" fill="none" stroke="#3A3A3A" stroke-width="1.5"/><path d="M80 27 l10 14 h-20 z" fill="#9B9B9B"/><path d="M80 133 l-10 -14 h20 z" fill="#CFCFCF"/><path d="M27 80 l14 -10 v20 z" fill="#9B9B9B"/><path d="M133 80 l-14 10 v-20 z" fill="#9B9B9B"/></g></svg>