<svg xmlns="http://www.w3.org/2000/svg" viewBox="0 0 520 300" width="520" height="300" role="img" aria-label="screen-on"><defs><linearGradient id="screen_on_bez" x1="0" y1="0" x2="0" y2="1"><stop offset="0" stop-color="#434343"/><stop offset="1" stop-color="#333333"/></linearGradient><linearGradient id="screen_on_lcd" x1="0" y1="0" x2="0" y2="1"><stop offset="0" stop-color="#9FBB0C"/><stop offset="1" stop-color="#8AA503"/></linearGradient><pattern id="screen_on_dots" width="4" height="4" patternUnits="userSpaceOnUse"><rect y="3" width="4" height="1" fill="#000" opacity=".07"/><rect x="3" width="1" height="4" fill="#000" opacity=".05"/></pattern></defs><rect x="4" y="4" width="512" height="292" rx="10" fill="url(#screen_on_bez)"/><rect x="4" y="4" width="512" height="292" rx="10" fill="none" stroke="#545454" stroke-width="1.2"/><rect x="228" y="9" width="64" height="8" rx="2" fill="#242424"/><rect x="36" y="34" width="448" height="212" rx="2" fill="#1C1C1C"/><rect x="38" y="36" width="444" height="208" rx="1" fill="url(#screen_on_lcd)"/><rect x="38" y="36" width="444" height="208" rx="1" fill="url(#screen_on_dots)"/><rect x="38" y="36" width="444" height="208" rx="1" fill="none" stroke="#000" stroke-opacity=".3" stroke-width="1.5"/><line x1="60" y1="268" x2="160" y2="268" stroke="#6A6A6A" stroke-width="1.2"/><line x1="360" y1="268" x2="460" y2="268" stroke="#6A6A6A" stroke-width="1.2"/><text x="260" y="272" font-family="Arial, 'Helvetica Neue', Helvetica, sans-serif" font-size="11" letter-spacing="3.2" text-anchor="middle" fill="#9A9A9A">DOT MATRIX WITH STEREO SOUND</text></svg>