<svg xmlns="http://www.w3.org/2000/svg" style="display:none"><symbol id="dpad-idle" viewBox="0 0 160 160"><defs><linearGradient id="dpad_idle_face" x1="0" y1="0" x2="0" y2="1"><stop offset="0" stop-color="#575757"/><stop offset="1" stop-color="#474747"/></linearGradient><filter id="dpad_idle_sh" x="-40%" y="-40%" width="180%" height="180%"><feDropShadow dx="0" dy="1.5" stdDeviation="1" flood-color="#000" flood-opacity="0.3"/></filter><clipPath id="dpad_idle_clip"><path d="M56 14 h48 a2 2 0 0 1 2 2 v36 a2 2 0 0 0 2 2 h36 a2 2 0 0 1 2 2 v48 a2 2 0 0 1 -2 2 h-36 a2 2 0 0 0 -2 2 v36 a2 2 0 0 1 -2 2 h-48 a2 2 0 0 1 -2 -2 v-36 a2 2 0 0 0 -2 -2 h-36 a2 2 0 0 1 -2 -2 v-48 a2 2 0 0 1 2 -2 h36 a2 2 0 0 0 2 -2 v-36 a2 2 0 0 1 2 -2 z"/></clipPath></defs><g transform="translate(0 0)" filter="url(#dpad_idle_sh)"><path d="M56 14 h48 a2 2 0 0 1 2 2 v36 a2 2 0 0 0 2 2 h36 a2 2 0 0 1 2 2 v48 a2 2 0 0 1 -2 2 h-36 a2 2 0 0 0 -2 2 v36 a2 2 0 0 1 -2 2 h-48 a2 2 0 0 1 -2 -2 v-36 a2 2 0 0 0 -2 -2 h-36 a2 2 0 0 1 -2 -2 v-48 a2 2 0 0 1 2 -2 h36 a2 2 0 0 0 2 -2 v-36 a2 2 0 0 1 2 -2 z" fill="url(#dpad_idle_face)"/><g clip-path="url(#dpad_idle_clip)"><path d="M56 14 h48 a2 2 0 0 1 2 2 v36 a2 2 0 0 0 2 2 h36 a2 2 0 0 1 2 2 v48 a2 2 0 0 1 -2 2 h-36 a2 2 0 0 0 -2 2 v36 a2 2 0 0 1 -2 2 h-48 a2 2 0 0 1 -2 -2 v-36 a2 2 0 0 0 -2 -2 h-36 a2 2 0 0 1 -2 -2 v-48 a2 2 0 0 1 2 -2 h36 a2 2 0 0 0 2 -2 v-36 a2 2 0 0 1 2 -2 z" fill="none" stroke="#6B6B6B" stroke-width="2"/><path d="M56 14 h48 a2 2 0 0 1 2 2 v36 a2 2 0 0 0 2 2 h36 a2 2 0 0 1 2 2 v48 a2 2 0 0 1 -2 2 h-36 a2 2 0 0 0 -2 2 v36 a2 2 0 0 1 -2 2 h-48 a2 2 0 0 1 -2 -2 v-36 a2 2 0 0 0 -2 -2 h-36 a2 2 0 0 1 -2 -2 v-48 a2 2 0 0 1 2 -2 h36 a2 2 0 0 0 2 -2 v-36 a2 2 0 0 1 2 -2 z" fill="none" stroke="#333" stroke-width="2" transform="translate(0 2)"/></g><path d="M56 14 h48 a2 2 0 0 1 2 2 v36 a2 2 0 0 0 2 2 h36 a2 2 0 0 1 2 2 v48 a2 2 0 0 1 -2 2 h-36 a2 2 0 0 0 -2 2 v36 a2 2 0 0 1 -2 2 h-48 a2 2 0 0 1 -2 -2 v-36 a2 2 0 0 0 -2 -2 h-36 a2 2 0 0 1 -2 -2 v-48 a2 2 0 0 1 2 -2 h36 a2 2 0 0 0 2 -2 v-36 a2 2 0 0 1 2 -2 z" fill="none" stroke="#2C2C2C" stroke-width="1.5"/><circle cx="80" cy="80" r="19" fill="#4E4E4E"/><circle cx="80" cy="80" r="19" fill="none" stroke="#3A3A3A" stroke-width="1.5"/><path d="M80 27 l10 14 h-20 z" fill="#9B9B9B"/><path d="M80 133 l-10 -14 h20 z" fill="#9B9B9B"/><path d="M27 80 l14 -10 v20 z" fill="#9B9B9B"/><path d="M133 80 l-14 10 v-20 z" fill="#9B9B9B"/></g></symbol><symbol id="dpad-up" viewBox="0 0 160 160"><defs><linearGradient id="dpad_up_face" x1="0" y1="0" x2="0" y2="1"><stop offset="0" stop-color="#575757"/><stop offset="1" stop-color="#474747"/></linearGradient><filter id="dpad_up_sh" x="-40%" y="-40%" width="180%" height="180%"><feDropShadow dx="0" dy="0.5" stdDeviation="1" flood-color="#000" flood-opacity="0.3"/></filter><clipPath id="dpad_up_clip"><path d="M56 14 h48 a2 2 0 0 1 2 2 v36 a2 2 0 0 0 2 2 h36 a2 2 0 0 1 2 2 v48 a2 2 0 0 1 -2 2 h-36 a2 2 0 0 0 -2 2 v36 a2 2 0 0 1 -2 2 h-48 a2 2 0 0 1 -2 -2 v-36 a2 2 0 0 0 -2 -2 h-36 a2 2 0 0 1 -2 -2 v-48 a2 2 0 0 1 2 -2 h36 a2 2 0 0 0 2 -2 v-36 a2 2 0 0 1 2 -2 z"/></clipPath></defs><g transform="translate(0 -1)" filter="url(#dpad_up_sh)"><path d="M56 14 h48 a2 2 0 0 1 2 2 v36 a2 2 0 0 0 2 2 h36 a2 2 0 0 1 2 2 v48 a2 2 0 0 1 -2 2 h-36 a2 2 0 0 0 -2 2 v36 a2 2 0 0 1 -2 2 h-48 a2 2 0 0 1 -2 -2 v-36 a2 2 0 0 0 -2 -2 h-36 a2 2 0 0 1 -2 -2 v-48 a2 2 0 0 1 2 -2 h36 a2 2 0 0 0 2 -2 v-36 a2 2 0 0 1 2 -2 z" fill="url(#dpad_up_face)"/><g clip-path="url(#dpad_up_clip)"><path d="M56 14 h48 a2 2 0 0 1 2 2 v36 a2 2 0 0 0 2 2 h36 a2 2 0 0 1 2 2 v48 a2 2 0 0 1 -2 2 h-36 a2 2 0 0 0 -2 2 v36 a2 2 0 0 1 -2 2 h-48 a2 2 0 0 1 -2 -2 v-36 a2 2 0 0 0 -2 -2 h-36 a2 2 0 0 1 -2 -2 v-48 a2 2 0 0 1 2 -2 h36 a2 2 0 0 0 2 -2 v-36 a2 2 0 0 1 2 -2 z" fill="none" stroke="#6B6B6B" stroke-width="2"/><path d="M56 14 h48 a2 2 0 0 1 2 2 v36 a2 2 0 0 0 2 2 h36 a2 2 0 0 1 2 2 v48 a2 2 0 0 1 -2 2 h-36 a2 2 0 0 0 -2 2 v36 a2 2 0 0 1 -2 2 h-48 a2 2 0 0 1 -2 -2 v-36 a2 2 0 0 0 -2 -2 h-36 a2 2 0 0 1 -2 -2 v-48 a2 2 0 0 1 2 -2 h36 a2 2 0 0 0 2 -2 v-36 a2 2 0 0 1 2 -2 z" fill="none" stroke="#333" stroke-width="2" transform="translate(0 2)"/><rect x="54" y="14" width="52" height="52" fill="#000" opacity=".17"/></g><path d="M56 14 h48 a2 2 0 0 1 2 2 v36 a2 2 0 0 0 2 2 h36 a2 2 0 0 1 2 2 v48 a2 2 0 0 1 -2 2 h-36 a2 2 0 0 0 -2 2 v36 a2 2 0 0 1 -2 2 h-48 a2 2 0 0 1 -2 -2 v-36 a2 2 0 0 0 -2 -2 h-36 a2 2 0 0 1 -2 -2 v-48 a2 2 0 0 1 2 -2 h36 a2 2 0 0 0 2 -2 v-36 a2 2 0 0 1 2 -2 z" fill="none" stroke="#2C2C2C" stroke-width="1.5"/><circle cx="80" cy="80" r="19" fill="#4E4E4E"/><circle cx="80" cy="80" r="19" fill="none" stroke="#3A3A3A" stroke-width="1.5"/><path d="M80 27 l10 14 h-20 z" fill="#CFCFCF"/><path d="M80 133 l-10 -14 h20 z" fill="#9B9B9B"/><path d="M27 80 l14 -10 v20 z" fill="#9B9B9B"/><path d="M133 80 l-14 10 v-20 z" fill="#9B9B9B"/></g></symbol><symbol id="dpad-right" viewBox="0 0 160 160"><defs><linearGradient id="dpad_right_face" x1="0" y1="0" x2="0" y2="1"><stop offset="0" stop-color="#575757"/><stop offset="1" stop-color="#474747"/></linearGradient><filter id="dpad_right_sh" x="-40%" y="-40%" width="180%" height="180%"><feDropShadow dx="0" dy="0.5" stdDeviation="1" flood-color="#000" flood-opacity="0.3"/></filter><clipPath id="dpad_right_clip"><path d="M56 14 h48 a2 2 0 0 1 2 2 v36 a2 2 0 0 0 2 2 h36 a2 2 0 0 1 2 2 v48 a2 2 0 0 1 -2 2 h-36 a2 2 0 0 0 -2 2 v36 a2 2 0 0 1 -2 2 h-48 a2 2 0 0 1 -2 -2 v-36 a2 2 0 0 0 -2 -2 h-36 a2 2 0 0 1 -2 -2 v-48 a2 2 0 0 1 2 -2 h36 a2 2 0 0 0 2 -2 v-36 a2 2 0 0 1 2 -2 z"/></clipPath></defs><g transform="translate(1 0)" filter="url(#dpad_right_sh)"><path d="M56 14 h48 a2 2 0 0 1 2 2 v36 a2 2 0 0 0 2 2 h36 a2 2 0 0 1 2 2 v48 a2 2 0 0 1 -2 2 h-36 a2 2 0 0 0 -2 2 v36 a2 2 0 0 1 -2 2 h-48 a2 2 0 0 1 -2 -2 v-36 a2 2 0 0 0 -2 -2 h-36 a2 2 0 0 1 -2 -2 v-48 a2 2 0 0 1 2 -2 h36 a2 2 0 0 0 2 -2 v-36 a2 2 0 0 1 2 -2 z" fill="url(#dpad_right_face)"/><g clip-path="url(#dpad_right_clip)"><path d="M56 14 h48 a2 2 0 0 1 2 2 v36 a2 2 0 0 0 2 2 h36 a2 2 0 0 1 2 2 v48 a2 2 0 0 1 -2 2 h-36 a2 2 0 0 0 -2 2 v36 a2 2 0 0 1 -2 2 h-48 a2 2 0 0 1 -2 -2 v-36 a2 2 0 0 0 -2 -2 h-36 a2 2 0 0 1 -2 -2 v-48 a2 2 0 0 1 2 -2 h36 a2 2 0 0 0 2 -2 v-36 a2 2 0 0 1 2 -2 z" fill="none" stroke="#6B6B6B" stroke-width="2"/><path d="M56 14 h48 a2 2 0 0 1 2 2 v36 a2 2 0 0 0 2 2 h36 a2 2 0 0 1 2 2 v48 a2 2 0 0 1 -2 2 h-36 a2 2 0 0 0 -2 2 v36 a2 2 0 0 1 -2 2 h-48 a2 2 0 0 1 -2 -2 v-36 a2 2 0 0 0 -2 -2 h-36 a2 2 0 0 1 -2 -2 v-48 a2 2 0 0 1 2 -2 h36 a2 2 0 0 0 2 -2 v-36 a2 2 0 0 1 2 -2 z" fill="none" stroke="#333" stroke-width="2" transform="translate(0 2)"/><rect x="94" y="54" width="52" height="52" fill="#000" opacity=".17"/></g><path d="M56 14 h48 a2 2 0 0 1 2 2 v36 a2 2 0 0 0 2 2 h36 a2 2 0 0 1 2 2 v48 a2 2 0 0 1 -2 2 h-36 a2 2 0 0 0 -2 2 v36 a2 2 0 0 1 -2 2 h-48 a2 2 0 0 1 -2 -2 v-36 a2 2 0 0 0 -2 -2 h-36 a2 2 0 0 1 -2 -2 v-48 a2 2 0 0 1 2 -2 h36 a2 2 0 0 0 2 -2 v-36 a2 2 0 0 1 2 -2 z" fill="none" stroke="#2C2C2C" stroke-width="1.5"/><circle cx="80" cy="80" r="19" fill="#4E4E4E"/><circle cx="80" cy="80" r="19" fill="none" stroke="#3A3A3A" stroke-width="1.5"/><path d="M80 27 l10 14 h-20 z" fill="#9B9B9B"/><path d="M80 133 l-10 -14 h20 z" fill="#9B9B9B"/><path d="M27 80 l14 -10 v20 z" fill="#9B9B9B"/><path d="M133 80 l-14 10 v-20 z" fill="#CFCFCF"/></g></symbol><symbol id="dpad-down" viewBox="0 0 160 160"><defs><linearGradient id="dpad_down_face" x1="0" y1="0" x2="0" y2="1"><stop offset="0" stop-color="#575757"/><stop offset="1" stop-color="#474747"/></linearGradient><filter id="dpad_down_sh" x="-40%" y="-40%" width="180%" height="180%"><feDropShadow dx="0" dy="0.5" stdDeviation="1" flood-color="#000" flood-opacity="0.3"/></filter><clipPath id="dpad_down_clip"><path d="M56 14 h48 a2 2 0 0 1 2 2 v36 a2 2 0 0 0 2 2 h36 a2 2 0 0 1 2 2 v48 a2 2 0 0 1 -2 2 h-36 a2 2 0 0 0 -2 2 v36 a2 2 0 0 1 -2 2 h-48 a2 2 0 0 1 -2 -2 v-36 a2 2 0 0 0 -2 -2 h-36 a2 2 0 0 1 -2 -2 v-48 a2 2 0 0 1 2 -2 h36 a2 2 0 0 0 2 -2 v-36 a2 2 0 0 1 2 -2 z"/></clipPath></defs><g transform="translate(0 1)" filter="url(#dpad_down_sh)"><path d="M56 14 h48 a2 2 0 0 1 2 2 v36 a2 2 0 0 0 2 2 h36 a2 2 0 0 1 2 2 v48 a2 2 0 0 1 -2 2 h-36 a2 2 0 0 0 -2 2 v36 a2 2 0 0 1 -2 2 h-48 a2 2 0 0 1 -2 -2 v-36 a2 2 0 0 0 -2 -2 h-36 a2 2 0 0 1 -2 -2 v-48 a2 2 0 0 1 2 -2 h36 a2 2 0 0 0 2 -2 v-36 a2 2 0 0 1 2 -2 z" fill="url(#dpad_down_face)"/><g clip-path="url(#dpad_down_clip)"><path d="M56 14 h48 a2 2 0 0 1 2 2 v36 a2 2 0 0 0 2 2 h36 a2 2 0 0 1 2 2 v48 a2 2 0 0 1 -2 2 h-36 a2 2 0 0 0 -2 2 v36 a2 2 0 0 1 -2 2 h-48 a2 2 0 0 1 -2 -2 v-36 a2 2 0 0 0 -2 -2 h-36 a2 2 0 0 1 -2 -2 v-48 a2 2 0 0 1 2 -2 h36 a2 2 0 0 0 2 -2 v-36 a2 2 0 0 1 2 -2 z" fill="none" stroke="#6B6B6B" stroke-width="2"/><path d="M56 14 h48 a2 2 0 0 1 2 2 v36 a2 2 0 0 0 2 2 h36 a2 2 0 0 1 2 2 v48 a2 2 0 0 1 -2 2 h-36 a2 2 0 0 0 -2 2 v36 a2 2 0 0 1 -2 2 h-48 a2 2 0 0 1 -2 -2 v-36 a2 2 0 0 0 -2 -2 h-36 a2 2 0 0 1 -2 -2 v-48 a2 2 0 0 1 2 -2 h36 a2 2 0 0 0 2 -2 v-36 a2 2 0 0 1 2 -2 z" fill="none" stroke="#333" stroke-width="2" transform="translate(0 2)"/><rect x="54" y="94" width="52" height="52" fill="#000" opacity=".17"/></g><path d="M56 14 h48 a2 2 0 0 1 2 2 v36 a2 2 0 0 0 2 2 h36 a2 2 0 0 1 2 2 v48 a2 2 0 0 1 -2 2 h-36 a2 2 0 0 0 -2 2 v36 a2 2 0 0 1 -2 2 h-48 a2 2 0 0 1 -2 -2 v-36 a2 2 0 0 0 -2 -2 h-36 a2 2 0 0 1 -2 -2 v-48 a2 2 0 0 1 2 -2 h36 a2 2 0 0 0 2 -2 v-36 a2 2 0 0 1 2 -2 z" fill="none" stroke="#2C2C2C" stroke-width="1.5"/><circle cx="80" cy="80" r="19" fill="#4E4E4E"/><circle cx="80" cy="80" r="19" fill="none" stroke="#3A3A3A" stroke-width="1.5"/><path d="M80 27 l10 14 h-20 z" fill="#9B9B9B"/><path d="M80 133 l-10 -14 h20 z" fill="#CFCFCF"/><path d="M27 80 l14 -10 v20 z" fill="#9B9B9B"/><path d="M133 80 l-14 10 v-20 z" fill="#9B9B9B"/></g></symbol><symbol id="dpad-left" viewBox="0 0 160 160"><defs><linearGradient id="dpad_left_face" x1="0" y1="0" x2="0" y2="1"><stop offset="0" stop-color="#575757"/><stop offset="1" stop-color="#474747"/></linearGradient><filter id="dpad_left_sh" x="-40%" y="-40%" width="180%" height="180%"><feDropShadow dx="0" dy="0.5" stdDeviation="1" flood-color="#000" flood-opacity="0.3"/></filter><clipPath id="dpad_left_clip"><path d="M56 14 h48 a2 2 0 0 1 2 2 v36 a2 2 0 0 0 2 2 h36 a2 2 0 0 1 2 2 v48 a2 2 0 0 1 -2 2 h-36 a2 2 0 0 0 -2 2 v36 a2 2 0 0 1 -2 2 h-48 a2 2 0 0 1 -2 -2 v-36 a2 2 0 0 0 -2 -2 h-36 a2 2 0 0 1 -2 -2 v-48 a2 2 0 0 1 2 -2 h36 a2 2 0 0 0 2 -2 v-36 a2 2 0 0 1 2 -2 z"/></clipPath></defs><g transform="translate(-1 0)" filter="url(#dpad_left_sh)"><path d="M56 14 h48 a2 2 0 0 1 2 2 v36 a2 2 0 0 0 2 2 h36 a2 2 0 0 1 2 2 v48 a2 2 0 0 1 -2 2 h-36 a2 2 0 0 0 -2 2 v36 a2 2 0 0 1 -2 2 h-48 a2 2 0 0 1 -2 -2 v-36 a2 2 0 0 0 -2 -2 h-36 a2 2 0 0 1 -2 -2 v-48 a2 2 0 0 1 2 -2 h36 a2 2 0 0 0 2 -2 v-36 a2 2 0 0 1 2 -2 z" fill="url(#dpad_left_face)"/><g clip-path="url(#dpad_left_clip)"><path d="M56 14 h48 a2 2 0 0 1 2 2 v36 a2 2 0 0 0 2 2 h36 a2 2 0 0 1 2 2 v48 a2 2 0 0 1 -2 2 h-36 a2 2 0 0 0 -2 2 v36 a2 2 0 0 1 -2 2 h-48 a2 2 0 0 1 -2 -2 v-36 a2 2 0 0 0 -2 -2 h-36 a2 2 0 0 1 -2 -2 v-48 a2 2 0 0 1 2 -2 h36 a2 2 0 0 0 2 -2 v-36 a2 2 0 0 1 2 -2 z" fill="none" stroke="#6B6B6B" stroke-width="2"/><path d="M56 14 h48 a2 2 0 0 1 2 2 v36 a2 2 0 0 0 2 2 h36 a2 2 0 0 1 2 2 v48 a2 2 0 0 1 -2 2 h-36 a2 2 0 0 0 -2 2 v36 a2 2 0 0 1 -2 2 h-48 a2 2 0 0 1 -2 -2 v-36 a2 2 0 0 0 -2 -2 h-36 a2 2 0 0 1 -2 -2 v-48 a2 2 0 0 1 2 -2 h36 a2 2 0 0 0 2 -2 v-36 a2 2 0 0 1 2 -2 z" fill="none" stroke="#333" stroke-width="2" transform="translate(0 2)"/><rect x="14" y="54" width="52" height="52" fill="#000" opacity=".17"/></g><path d="M56 14 h48 a2 2 0 0 1 2 2 v36 a2 2 0 0 0 2 2 h36 a2 2 0 0 1 2 2 v48 a2 2 0 0 1 -2 2 h-36 a2 2 0 0 0 -2 2 v36 a2 2 0 0 1 -2 2 h-48 a2 2 0 0 1 -2 -2 v-36 a2 2 0 0 0 -2 -2 h-36 a2 2 0 0 1 -2 -2 v-48 a2 2 0 0 1 2 -2 h36 a2 2 0 0 0 2 -2 v-36 a2 2 0 0 1 2 -2 z" fill="none" stroke="#2C2C2C" stroke-width="1.5"/><circle cx="80" cy="80" r="19" fill="#4E4E4E"/><circle cx="80" cy="80" r="19" fill="none" stroke="#3A3A3A" stroke-width="1.5"/><path d="M80 27 l10 14 h-20 z" fill="#9B9B9B"/><path d="M80 133 l-10 -14 h20 z" fill="#9B9B9B"/><path d="M27 80 l14 -10 v20 z" fill="#CFCFCF"/><path d="M133 80 l-14 10 v-20 z" fill="#9B9B9B"/></g></symbol><symbol id="btn-x-idle" viewBox="0 0 96 100"><defs><linearGradient id="btn_x_idle_face" x1="0" y1="0" x2="0" y2="1"><stop offset="0" stop-color="#5F5E96"/><stop offset="1" stop-color="#514F82"/></linearGradient><filter id="btn_x_idle_sh" x="-40%" y="-40%" width="180%" height="180%"><feDropShadow dx="0" dy="2" stdDeviation="1.2" flood-color="#000" flood-opacity="0.3"/></filter></defs><circle cx="48" cy="49" r="34" fill="#000" opacity=".09"/><g transform="translate(0 0)" filter="url(#btn_x_idle_sh)"><circle cx="48" cy="48" r="32" fill="#37365F"/><circle cx="48" cy="48" r="30" fill="url(#btn_x_idle_face)"/><circle cx="48" cy="48" r="30" fill="none" stroke="#fff" stroke-opacity=".12" stroke-width="1"/><text x="48" y="49.4" font-family="Arial, 'Helvetica Neue', Helvetica, sans-serif" font-size="26" font-weight="700" text-anchor="middle" dominant-baseline="central" fill="#26254A" opacity=".9">X</text><text x="48" y="46.6" font-family="Arial, 'Helvetica Neue', Helvetica, sans-serif" font-size="26" font-weight="700" text-anchor="middle" dominant-baseline="central" fill="#A9A8D2" opacity=".6">X</text><text x="48" y="48" font-family="Arial, 'Helvetica Neue', Helvetica, sans-serif" font-size="26" font-weight="700" text-anchor="middle" dominant-baseline="central" fill="#8281BC">X</text></g></symbol><symbol id="btn-x-pressed" viewBox="0 0 96 100"><defs><linearGradient id="btn_x_pressed_face" x1="0" y1="0" x2="0" y2="1"><stop offset="0" stop-color="#514F82"/><stop offset="1" stop-color="#5F5E96"/></linearGradient><filter id="btn_x_pressed_sh" x="-40%" y="-40%" width="180%" height="180%"><feDropShadow dx="0" dy="0.5" stdDeviation="0.8" flood-color="#000" flood-opacity="0.22"/></filter><linearGradient id="btn_x_pressed_sink" x1="0" y1="0" x2="0" y2="1"><stop offset="0" stop-color="#000" stop-opacity=".26"/><stop offset=".32" stop-color="#000" stop-opacity="0"/><stop offset=".8" stop-color="#fff" stop-opacity="0"/><stop offset="1" stop-color="#fff" stop-opacity=".09"/></linearGradient></defs><circle cx="48" cy="49" r="34" fill="#000" opacity=".14"/><g transform="translate(0 3)" filter="url(#btn_x_pressed_sh)"><circle cx="48" cy="48" r="32" fill="#37365F"/><circle cx="48" cy="48" r="29" fill="url(#btn_x_pressed_face)"/><circle cx="48" cy="48" r="29" fill="url(#btn_x_pressed_sink)"/><text x="48" y="47.6" font-family="Arial, 'Helvetica Neue', Helvetica, sans-serif" font-size="26" font-weight="700" text-anchor="middle" dominant-baseline="central" fill="#26254A" opacity=".9">X</text><text x="48" y="50.4" font-family="Arial, 'Helvetica Neue', Helvetica, sans-serif" font-size="26" font-weight="700" text-anchor="middle" dominant-baseline="central" fill="#A9A8D2" opacity=".6">X</text><text x="48" y="49" font-family="Arial, 'Helvetica Neue', Helvetica, sans-serif" font-size="26" font-weight="700" text-anchor="middle" dominant-baseline="central" fill="#8281BC">X</text></g></symbol><symbol id="btn-c-idle" viewBox="0 0 96 100"><defs><linearGradient id="btn_c_idle_face" x1="0" y1="0" x2="0" y2="1"><stop offset="0" stop-color="#5F5E96"/><stop offset="1" stop-color="#514F82"/></linearGradient><filter id="btn_c_idle_sh" x="-40%" y="-40%" width="180%" height="180%"><feDropShadow dx="0" dy="2" stdDeviation="1.2" flood-color="#000" flood-opacity="0.3"/></filter></defs><circle cx="48" cy="49" r="34" fill="#000" opacity=".09"/><g transform="translate(0 0)" filter="url(#btn_c_idle_sh)"><circle cx="48" cy="48" r="32" fill="#37365F"/><circle cx="48" cy="48" r="30" fill="url(#btn_c_idle_face)"/><circle cx="48" cy="48" r="30" fill="none" stroke="#fff" stroke-opacity=".12" stroke-width="1"/><text x="48" y="49.4" font-family="Arial, 'Helvetica Neue', Helvetica, sans-serif" font-size="26" font-weight="700" text-anchor="middle" dominant-baseline="central" fill="#26254A" opacity=".9">C</text><text x="48" y="46.6" font-family="Arial, 'Helvetica Neue', Helvetica, sans-serif" font-size="26" font-weight="700" text-anchor="middle" dominant-baseline="central" fill="#A9A8D2" opacity=".6">C</text><text x="48" y="48" font-family="Arial, 'Helvetica Neue', Helvetica, sans-serif" font-size="26" font-weight="700" text-anchor="middle" dominant-baseline="central" fill="#8281BC">C</text></g></symbol><symbol id="btn-c-pressed" viewBox="0 0 96 100"><defs><linearGradient id="btn_c_pressed_face" x1="0" y1="0" x2="0" y2="1"><stop offset="0" stop-color="#514F82"/><stop offset="1" stop-color="#5F5E96"/></linearGradient><filter id="btn_c_pressed_sh" x="-40%" y="-40%" width="180%" height="180%"><feDropShadow dx="0" dy="0.5" stdDeviation="0.8" flood-color="#000" flood-opacity="0.22"/></filter><linearGradient id="btn_c_pressed_sink" x1="0" y1="0" x2="0" y2="1"><stop offset="0" stop-color="#000" stop-opacity=".26"/><stop offset=".32" stop-color="#000" stop-opacity="0"/><stop offset=".8" stop-color="#fff" stop-opacity="0"/><stop offset="1" stop-color="#fff" stop-opacity=".09"/></linearGradient></defs><circle cx="48" cy="49" r="34" fill="#000" opacity=".14"/><g transform="translate(0 3)" filter="url(#btn_c_pressed_sh)"><circle cx="48" cy="48" r="32" fill="#37365F"/><circle cx="48" cy="48" r="29" fill="url(#btn_c_pressed_face)"/><circle cx="48" cy="48" r="29" fill="url(#btn_c_pressed_sink)"/><text x="48" y="47.6" font-family="Arial, 'Helvetica Neue', Helvetica, sans-serif" font-size="26" font-weight="700" text-anchor="middle" dominant-baseline="central" fill="#26254A" opacity=".9">C</text><text x="48" y="50.4" font-family="Arial, 'Helvetica Neue', Helvetica, sans-serif" font-size="26" font-weight="700" text-anchor="middle" dominant-baseline="central" fill="#A9A8D2" opacity=".6">C</text><text x="48" y="49" font-family="Arial, 'Helvetica Neue', Helvetica, sans-serif" font-size="26" font-weight="700" text-anchor="middle" dominant-baseline="central" fill="#8281BC">C</text></g></symbol><symbol id="btn-y-idle" viewBox="0 0 96 100"><defs><linearGradient id="btn_y_idle_face" x1="0" y1="0" x2="0" y2="1"><stop offset="0" stop-color="#5F5E96"/><stop offset="1" stop-color="#514F82"/></linearGradient><filter id="btn_y_idle_sh" x="-40%" y="-40%" width="180%" height="180%"><feDropShadow dx="0" dy="2" stdDeviation="1.2" flood-color="#000" flood-opacity="0.3"/></filter></defs><circle cx="48" cy="49" r="34" fill="#000" opacity=".09"/><g transform="translate(0 0)" filter="url(#btn_y_idle_sh)"><circle cx="48" cy="48" r="32" fill="#37365F"/><circle cx="48" cy="48" r="30" fill="url(#btn_y_idle_face)"/><circle cx="48" cy="48" r="30" fill="none" stroke="#fff" stroke-opacity=".12" stroke-width="1"/><text x="48" y="49.4" font-family="Arial, 'Helvetica Neue', Helvetica, sans-serif" font-size="26" font-weight="700" text-anchor="middle" dominant-baseline="central" fill="#26254A" opacity=".9">Y</text><text x="48" y="46.6" font-family="Arial, 'Helvetica Neue', Helvetica, sans-serif" font-size="26" font-weight="700" text-anchor="middle" dominant-baseline="central" fill="#A9A8D2" opacity=".6">Y</text><text x="48" y="48" font-family="Arial, 'Helvetica Neue', Helvetica, sans-serif" font-size="26" font-weight="700" text-anchor="middle" dominant-baseline="central" fill="#8281BC">Y</text></g></symbol><symbol id="btn-y-pressed" viewBox="0 0 96 100"><defs><linearGradient id="btn_y_pressed_face" x1="0" y1="0" x2="0" y2="1"><stop offset="0" stop-color="#514F82"/><stop offset="1" stop-color="#5F5E96"/></linearGradient><filter id="btn_y_pressed_sh" x="-40%" y="-40%" width="180%" height="180%"><feDropShadow dx="0" dy="0.5" stdDeviation="0.8" flood-color="#000" flood-opacity="0.22"/></filter><linearGradient id="btn_y_pressed_sink" x1="0" y1="0" x2="0" y2="1"><stop offset="0" stop-color="#000" stop-opacity=".26"/><stop offset=".32" stop-color="#000" stop-opacity="0"/><stop offset=".8" stop-color="#fff" stop-opacity="0"/><stop offset="1" stop-color="#fff" stop-opacity=".09"/></linearGradient></defs><circle cx="48" cy="49" r="34" fill="#000" opacity=".14"/><g transform="translate(0 3)" filter="url(#btn_y_pressed_sh)"><circle cx="48" cy="48" r="32" fill="#37365F"/><circle cx="48" cy="48" r="29" fill="url(#btn_y_pressed_face)"/><circle cx="48" cy="48" r="29" fill="url(#btn_y_pressed_sink)"/><text x="48" y="47.6" font-family="Arial, 'Helvetica Neue', Helvetica, sans-serif" font-size="26" font-weight="700" text-anchor="middle" dominant-baseline="central" fill="#26254A" opacity=".9">Y</text><text x="48" y="50.4" font-family="Arial, 'Helvetica Neue', Helvetica, sans-serif" font-size="26" font-weight="700" text-anchor="middle" dominant-baseline="central" fill="#A9A8D2" opacity=".6">Y</text><text x="48" y="49" font-family="Arial, 'Helvetica Neue', Helvetica, sans-serif" font-size="26" font-weight="700" text-anchor="middle" dominant-baseline="central" fill="#8281BC">Y</text></g></symbol><symbol id="btn-z-idle" viewBox="0 0 96 100"><defs><linearGradient id="btn_z_idle_face" x1="0" y1="0" x2="0" y2="1"><stop offset="0" stop-color="#5F5E96"/><stop offset="1" stop-color="#514F82"/></linearGradient><filter id="btn_z_idle_sh" x="-40%" y="-40%" width="180%" height="180%"><feDropShadow dx="0" dy="2" stdDeviation="1.2" flood-color="#000" flood-opacity="0.3"/></filter></defs><circle cx="48" cy="49" r="34" fill="#000" opacity=".09"/><g transform="translate(0 0)" filter="url(#btn_z_idle_sh)"><circle cx="48" cy="48" r="32" fill="#37365F"/><circle cx="48" cy="48" r="30" fill="url(#btn_z_idle_face)"/><circle cx="48" cy="48" r="30" fill="none" stroke="#fff" stroke-opacity=".12" stroke-width="1"/><text x="48" y="49.4" font-family="Arial, 'Helvetica Neue', Helvetica, sans-serif" font-size="26" font-weight="700" text-anchor="middle" dominant-baseline="central" fill="#26254A" opacity=".9">Z</text><text x="48" y="46.6" font-family="Arial, 'Helvetica Neue', Helvetica, sans-serif" font-size="26" font-weight="700" text-anchor="middle" dominant-baseline="central" fill="#A9A8D2" opacity=".6">Z</text><text x="48" y="48" font-family="Arial, 'Helvetica Neue', Helvetica, sans-serif" font-size="26" font-weight="700" text-anchor="middle" dominant-baseline="central" fill="#8281BC">Z</text></g></symbol><symbol id="btn-z-pressed" viewBox="0 0 96 100"><defs><linearGradient id="btn_z_pressed_face" x1="0" y1="0" x2="0" y2="1"><stop offset="0" stop-color="#514F82"/><stop offset="1" stop-color="#5F5E96"/></linearGradient><filter id="btn_z_pressed_sh" x="-40%" y="-40%" width="180%" height="180%"><feDropShadow dx="0" dy="0.5" stdDeviation="0.8" flood-color="#000" flood-opacity="0.22"/></filter><linearGradient id="btn_z_pressed_sink" x1="0" y1="0" x2="0" y2="1"><stop offset="0" stop-color="#000" stop-opacity=".26"/><stop offset=".32" stop-color="#000" stop-opacity="0"/><stop offset=".8" stop-color="#fff" stop-opacity="0"/><stop offset="1" stop-color="#fff" stop-opacity=".09"/></linearGradient></defs><circle cx="48" cy="49" r="34" fill="#000" opacity=".14"/><g transform="translate(0 3)" filter="url(#btn_z_pressed_sh)"><circle cx="48" cy="48" r="32" fill="#37365F"/><circle cx="48" cy="48" r="29" fill="url(#btn_z_pressed_face)"/><circle cx="48" cy="48" r="29" fill="url(#btn_z_pressed_sink)"/><text x="48" y="47.6" font-family="Arial, 'Helvetica Neue', Helvetica, sans-serif" font-size="26" font-weight="700" text-anchor="middle" dominant-baseline="central" fill="#26254A" opacity=".9">Z</text><text x="48" y="50.4" font-family="Arial, 'Helvetica Neue', Helvetica, sans-serif" font-size="26" font-weight="700" text-anchor="middle" dominant-baseline="central" fill="#A9A8D2" opacity=".6">Z</text><text x="48" y="49" font-family="Arial, 'Helvetica Neue', Helvetica, sans-serif" font-size="26" font-weight="700" text-anchor="middle" dominant-baseline="central" fill="#8281BC">Z</text></g></symbol><symbol id="btn-a-idle" viewBox="0 0 96 100"><defs><linearGradient id="btn_a_idle_face" x1="0" y1="0" x2="0" y2="1"><stop offset="0" stop-color="#C22B53"/><stop offset="1" stop-color="#A8153F"/></linearGradient><filter id="btn_a_idle_sh" x="-40%" y="-40%" width="180%" height="180%"><feDropShadow dx="0" dy="2" stdDeviation="1.2" flood-color="#000" flood-opacity="0.3"/></filter></defs><circle cx="48" cy="49" r="34" fill="#000" opacity=".09"/><g transform="translate(0 0)" filter="url(#btn_a_idle_sh)"><circle cx="48" cy="48" r="32" fill="#77102B"/><circle cx="48" cy="48" r="30" fill="url(#btn_a_idle_face)"/><circle cx="48" cy="48" r="30" fill="none" stroke="#fff" stroke-opacity=".12" stroke-width="1"/><text x="48" y="49.4" font-family="Arial, 'Helvetica Neue', Helvetica, sans-serif" font-size="26" font-weight="700" text-anchor="middle" dominant-baseline="central" fill="#5E0819" opacity=".9">A</text><text x="48" y="46.6" font-family="Arial, 'Helvetica Neue', Helvetica, sans-serif" font-size="26" font-weight="700" text-anchor="middle" dominant-baseline="central" fill="#F2A2B4" opacity=".6">A</text><text x="48" y="48" font-family="Arial, 'Helvetica Neue', Helvetica, sans-serif" font-size="26" font-weight="700" text-anchor="middle" dominant-baseline="central" fill="#DE6E8B">A</text></g></symbol><symbol id="btn-a-pressed" viewBox="0 0 96 100"><defs><linearGradient id="btn_a_pressed_face" x1="0" y1="0" x2="0" y2="1"><stop offset="0" stop-color="#A8153F"/><stop offset="1" stop-color="#C22B53"/></linearGradient><filter id="btn_a_pressed_sh" x="-40%" y="-40%" width="180%" height="180%"><feDropShadow dx="0" dy="0.5" stdDeviation="0.8" flood-color="#000" flood-opacity="0.22"/></filter><linearGradient id="btn_a_pressed_sink" x1="0" y1="0" x2="0" y2="1"><stop offset="0" stop-color="#000" stop-opacity=".26"/><stop offset=".32" stop-color="#000" stop-opacity="0"/><stop offset=".8" stop-color="#fff" stop-opacity="0"/><stop offset="1" stop-color="#fff" stop-opacity=".09"/></linearGradient></defs><circle cx="48" cy="49" r="34" fill="#000" opacity=".14"/><g transform="translate(0 3)" filter="url(#btn_a_pressed_sh)"><circle cx="48" cy="48" r="32" fill="#77102B"/><circle cx="48" cy="48" r="29" fill="url(#btn_a_pressed_face)"/><circle cx="48" cy="48" r="29" fill="url(#btn_a_pressed_sink)"/><text x="48" y="47.6" font-family="Arial, 'Helvetica Neue', Helvetica, sans-serif" font-size="26" font-weight="700" text-anchor="middle" dominant-baseline="central" fill="#5E0819" opacity=".9">A</text><text x="48" y="50.4" font-family="Arial, 'Helvetica Neue', Helvetica, sans-serif" font-size="26" font-weight="700" text-anchor="middle" dominant-baseline="central" fill="#F2A2B4" opacity=".6">A</text><text x="48" y="49" font-family="Arial, 'Helvetica Neue', Helvetica, sans-serif" font-size="26" font-weight="700" text-anchor="middle" dominant-baseline="central" fill="#DE6E8B">A</text></g></symbol><symbol id="btn-b-idle" viewBox="0 0 96 100"><defs><linearGradient id="btn_b_idle_face" x1="0" y1="0" x2="0" y2="1"><stop offset="0" stop-color="#C22B53"/><stop offset="1" stop-color="#A8153F"/></linearGradient><filter id="btn_b_idle_sh" x="-40%" y="-40%" width="180%" height="180%"><feDropShadow dx="0" dy="2" stdDeviation="1.2" flood-color="#000" flood-opacity="0.3"/></filter></defs><circle cx="48" cy="49" r="34" fill="#000" opacity=".09"/><g transform="translate(0 0)" filter="url(#btn_b_idle_sh)"><circle cx="48" cy="48" r="32" fill="#77102B"/><circle cx="48" cy="48" r="30" fill="url(#btn_b_idle_face)"/><circle cx="48" cy="48" r="30" fill="none" stroke="#fff" stroke-opacity=".12" stroke-width="1"/><text x="48" y="49.4" font-family="Arial, 'Helvetica Neue', Helvetica, sans-serif" font-size="26" font-weight="700" text-anchor="middle" dominant-baseline="central" fill="#5E0819" opacity=".9">B</text><text x="48" y="46.6" font-family="Arial, 'Helvetica Neue', Helvetica, sans-serif" font-size="26" font-weight="700" text-anchor="middle" dominant-baseline="central" fill="#F2A2B4" opacity=".6">B</text><text x="48" y="48" font-family="Arial, 'Helvetica Neue', Helvetica, sans-serif" font-size="26" font-weight="700" text-anchor="middle" dominant-baseline="central" fill="#DE6E8B">B</text></g></symbol><symbol id="btn-b-pressed" viewBox="0 0 96 100"><defs><linearGradient id="btn_b_pressed_face" x1="0" y1="0" x2="0" y2="1"><stop offset="0" stop-color="#A8153F"/><stop offset="1" stop-color="#C22B53"/></linearGradient><filter id="btn_b_pressed_sh" x="-40%" y="-40%" width="180%" height="180%"><feDropShadow dx="0" dy="0.5" stdDeviation="0.8" flood-color="#000" flood-opacity="0.22"/></filter><linearGradient id="btn_b_pressed_sink" x1="0" y1="0" x2="0" y2="1"><stop offset="0" stop-color="#000" stop-opacity=".26"/><stop offset=".32" stop-color="#000" stop-opacity="0"/><stop offset=".8" stop-color="#fff" stop-opacity="0"/><stop offset="1" stop-color="#fff" stop-opacity=".09"/></linearGradient></defs><circle cx="48" cy="49" r="34" fill="#000" opacity=".14"/><g transform="translate(0 3)" filter="url(#btn_b_pressed_sh)"><circle cx="48" cy="48" r="32" fill="#77102B"/><circle cx="48" cy="48" r="29" fill="url(#btn_b_pressed_face)"/><circle cx="48" cy="48" r="29" fill="url(#btn_b_pressed_sink)"/><text x="48" y="47.6" font-family="Arial, 'Helvetica Neue', Helvetica, sans-serif" font-size="26" font-weight="700" text-anchor="middle" dominant-baseline="central" fill="#5E0819" opacity=".9">B</text><text x="48" y="50.4" font-family="Arial, 'Helvetica Neue', Helvetica, sans-serif" font-size="26" font-weight="700" text-anchor="middle" dominant-baseline="central" fill="#F2A2B4" opacity=".6">B</text><text x="48" y="49" font-family="Arial, 'Helvetica Neue', Helvetica, sans-serif" font-size="26" font-weight="700" text-anchor="middle" dominant-baseline="central" fill="#DE6E8B">B</text></g></symbol><symbol id="stick-pivot-idle" viewBox="0 0 140 140"><defs><linearGradient id="pivot_idle_ring" x1="0" y1="0" x2="0" y2="1"><stop offset="0" stop-color="#E9E5DB"/><stop offset="1" stop-color="#CBC6B9"/></linearGradient><linearGradient id="pivot_idle_well" x1="0" y1="0" x2="0" y2="1"><stop offset="0" stop-color="#ABA69A"/><stop offset="1" stop-color="#C0BBAE"/></linearGradient></defs><circle cx="70" cy="70" r="52" fill="url(#pivot_idle_ring)"/><circle cx="70" cy="70" r="47" fill="#CBC6B9"/><circle cx="70" cy="70" r="42" fill="url(#pivot_idle_well)"/><circle cx="70" cy="70" r="42" fill="none" stroke="#000" stroke-opacity=".16" stroke-width="2"/><circle cx="70" cy="70" r="47" fill="none" stroke="#fff" stroke-opacity=".35" stroke-width="1"/></symbol><symbol id="stick-ball-idle" viewBox="0 0 76 84"><defs><linearGradient id="ball_idle_body" x1="0" y1="0" x2="0" y2="1"><stop offset="0" stop-color="#4C4A45"/><stop offset="1" stop-color="#332F2C"/></linearGradient><linearGradient id="ball_idle_dish" x1="0" y1="0" x2="0" y2="1"><stop offset="0" stop-color="#454239"/><stop offset="1" stop-color="#514E47"/></linearGradient><filter id="ball_idle_sh" x="-40%" y="-40%" width="180%" height="180%"><feDropShadow dx="0" dy="2" stdDeviation="1.4" flood-color="#000" flood-opacity="0.3"/></filter></defs><ellipse cx="38" cy="44" rx="27" ry="11" fill="#000" opacity=".2"/><g transform="translate(0 0) translate(38 38) scale(1) translate(-38 -38)" filter="url(#ball_idle_sh)"><circle cx="38" cy="38" r="29" fill="url(#ball_idle_body)"/><circle cx="38" cy="38" r="29" fill="none" stroke="#1E1C1A" stroke-width="1.5"/><circle cx="38" cy="38" r="22" fill="url(#ball_idle_dish)"/><circle cx="38" cy="38" r="22" fill="none" stroke="#000" stroke-opacity=".3" stroke-width="1"/></g></symbol><symbol id="stick-pivot-pressed" viewBox="0 0 140 140"><defs><linearGradient id="pivot_pressed_ring" x1="0" y1="0" x2="0" y2="1"><stop offset="0" stop-color="#E9E5DB"/><stop offset="1" stop-color="#CBC6B9"/></linearGradient><linearGradient id="pivot_pressed_well" x1="0" y1="0" x2="0" y2="1"><stop offset="0" stop-color="#A19C90"/><stop offset="1" stop-color="#B6B1A4"/></linearGradient></defs><circle cx="70" cy="70" r="52" fill="url(#pivot_pressed_ring)"/><circle cx="70" cy="70" r="47" fill="#CBC6B9"/><circle cx="70" cy="70" r="42" fill="url(#pivot_pressed_well)"/><circle cx="70" cy="70" r="42" fill="none" stroke="#000" stroke-opacity=".22" stroke-width="2"/><circle cx="70" cy="70" r="47" fill="none" stroke="#fff" stroke-opacity=".35" stroke-width="1"/></symbol><symbol id="stick-ball-pressed" viewBox="0 0 76 84"><defs><linearGradient id="ball_pressed_body" x1="0" y1="0" x2="0" y2="1"><stop offset="0" stop-color="#454340"/><stop offset="1" stop-color="#2C2A27"/></linearGradient><linearGradient id="ball_pressed_dish" x1="0" y1="0" x2="0" y2="1"><stop offset="0" stop-color="#3C3934"/><stop offset="1" stop-color="#46433D"/></linearGradient><filter id="ball_pressed_sh" x="-40%" y="-40%" width="180%" height="180%"><feDropShadow dx="0" dy="0.8" stdDeviation="1" flood-color="#000" flood-opacity="0.3"/></filter></defs><ellipse cx="38" cy="42" rx="25" ry="9" fill="#000" opacity=".2"/><g transform="translate(0 2) translate(38 38) scale(0.95) translate(-38 -38)" filter="url(#ball_pressed_sh)"><circle cx="38" cy="38" r="29" fill="url(#ball_pressed_body)"/><circle cx="38" cy="38" r="29" fill="none" stroke="#1E1C1A" stroke-width="1.5"/><circle cx="38" cy="38" r="22" fill="url(#ball_pressed_dish)"/><circle cx="38" cy="38" r="22" fill="none" stroke="#000" stroke-opacity=".3" stroke-width="1"/></g></symbol><symbol id="stick-idle" viewBox="0 0 140 140"><defs><linearGradient id="asm_idle_p_ring" x1="0" y1="0" x2="0" y2="1"><stop offset="0" stop-color="#E9E5DB"/><stop offset="1" stop-color="#CBC6B9"/></linearGradient><linearGradient id="asm_idle_p_well" x1="0" y1="0" x2="0" y2="1"><stop offset="0" stop-color="#ABA69A"/><stop offset="1" stop-color="#C0BBAE"/></linearGradient></defs><circle cx="70" cy="70" r="52" fill="url(#asm_idle_p_ring)"/><circle cx="70" cy="70" r="47" fill="#CBC6B9"/><circle cx="70" cy="70" r="42" fill="url(#asm_idle_p_well)"/><circle cx="70" cy="70" r="42" fill="none" stroke="#000" stroke-opacity=".16" stroke-width="2"/><circle cx="70" cy="70" r="47" fill="none" stroke="#fff" stroke-opacity=".35" stroke-width="1"/><g transform="translate(32 32)"><defs><linearGradient id="asm_idle_b_body" x1="0" y1="0" x2="0" y2="1"><stop offset="0" stop-color="#4C4A45"/><stop offset="1" stop-color="#332F2C"/></linearGradient><linearGradient id="asm_idle_b_dish" x1="0" y1="0" x2="0" y2="1"><stop offset="0" stop-color="#454239"/><stop offset="1" stop-color="#514E47"/></linearGradient><filter id="asm_idle_b_sh" x="-40%" y="-40%" width="180%" height="180%"><feDropShadow dx="0" dy="2" stdDeviation="1.4" flood-color="#000" flood-opacity="0.3"/></filter></defs><ellipse cx="38" cy="44" rx="27" ry="11" fill="#000" opacity=".2"/><g transform="translate(0 0) translate(38 38) scale(1) translate(-38 -38)" filter="url(#asm_idle_b_sh)"><circle cx="38" cy="38" r="29" fill="url(#asm_idle_b_body)"/><circle cx="38" cy="38" r="29" fill="none" stroke="#1E1C1A" stroke-width="1.5"/><circle cx="38" cy="38" r="22" fill="url(#asm_idle_b_dish)"/><circle cx="38" cy="38" r="22" fill="none" stroke="#000" stroke-opacity=".3" stroke-width="1"/></g></g></symbol><symbol id="stick-pressed" viewBox="0 0 140 140"><defs><linearGradient id="asm_pressed_p_ring" x1="0" y1="0" x2="0" y2="1"><stop offset="0" stop-color="#E9E5DB"/><stop offset="1" stop-color="#CBC6B9"/></linearGradient><linearGradient id="asm_pressed_p_well" x1="0" y1="0" x2="0" y2="1"><stop offset="0" stop-color="#A19C90"/><stop offset="1" stop-color="#B6B1A4"/></linearGradient></defs><circle cx="70" cy="70" r="52" fill="url(#asm_pressed_p_ring)"/><circle cx="70" cy="70" r="47" fill="#CBC6B9"/><circle cx="70" cy="70" r="42" fill="url(#asm_pressed_p_well)"/><circle cx="70" cy="70" r="42" fill="none" stroke="#000" stroke-opacity=".22" stroke-width="2"/><circle cx="70" cy="70" r="47" fill="none" stroke="#fff" stroke-opacity=".35" stroke-width="1"/><g transform="translate(32 32)"><defs><linearGradient id="asm_pressed_b_body" x1="0" y1="0" x2="0" y2="1"><stop offset="0" stop-color="#454340"/><stop offset="1" stop-color="#2C2A27"/></linearGradient><linearGradient id="asm_pressed_b_dish" x1="0" y1="0" x2="0" y2="1"><stop offset="0" stop-color="#3C3934"/><stop offset="1" stop-color="#46433D"/></linearGradient><filter id="asm_pressed_b_sh" x="-40%" y="-40%" width="180%" height="180%"><feDropShadow dx="0" dy="0.8" stdDeviation="1" flood-color="#000" flood-opacity="0.3"/></filter></defs><ellipse cx="38" cy="42" rx="25" ry="9" fill="#000" opacity=".2"/><g transform="translate(0 2) translate(38 38) scale(0.95) translate(-38 -38)" filter="url(#asm_pressed_b_sh)"><circle cx="38" cy="38" r="29" fill="url(#asm_pressed_b_body)"/><circle cx="38" cy="38" r="29" fill="none" stroke="#1E1C1A" stroke-width="1.5"/><circle cx="38" cy="38" r="22" fill="url(#asm_pressed_b_dish)"/><circle cx="38" cy="38" r="22" fill="none" stroke="#000" stroke-opacity=".3" stroke-width="1"/></g></g></symbol><symbol id="stick-tilt" viewBox="0 0 140 140"><defs><linearGradient id="asm_tilt_p_ring" x1="0" y1="0" x2="0" y2="1"><stop offset="0" stop-color="#E9E5DB"/><stop offset="1" stop-color="#CBC6B9"/></linearGradient><linearGradient id="asm_tilt_p_well" x1="0" y1="0" x2="0" y2="1"><stop offset="0" stop-color="#ABA69A"/><stop offset="1" stop-color="#C0BBAE"/></linearGradient></defs><circle cx="70" cy="70" r="52" fill="url(#asm_tilt_p_ring)"/><circle cx="70" cy="70" r="47" fill="#CBC6B9"/><circle cx="70" cy="70" r="42" fill="url(#asm_tilt_p_well)"/><circle cx="70" cy="70" r="42" fill="none" stroke="#000" stroke-opacity=".16" stroke-width="2"/><circle cx="70" cy="70" r="47" fill="none" stroke="#fff" stroke-opacity=".35" stroke-width="1"/><g transform="translate(46 32)"><defs><linearGradient id="asm_tilt_b_body" x1="0" y1="0" x2="0" y2="1"><stop offset="0" stop-color="#4C4A45"/><stop offset="1" stop-color="#332F2C"/></linearGradient><linearGradient id="asm_tilt_b_dish" x1="0" y1="0" x2="0" y2="1"><stop offset="0" stop-color="#454239"/><stop offset="1" stop-color="#514E47"/></linearGradient><filter id="asm_tilt_b_sh" x="-40%" y="-40%" width="180%" height="180%"><feDropShadow dx="0" dy="2" stdDeviation="1.4" flood-color="#000" flood-opacity="0.3"/></filter></defs><ellipse cx="38" cy="44" rx="27" ry="11" fill="#000" opacity=".2"/><g transform="translate(0 0) translate(38 38) scale(1) translate(-38 -38)" filter="url(#asm_tilt_b_sh)"><circle cx="38" cy="38" r="29" fill="url(#asm_tilt_b_body)"/><circle cx="38" cy="38" r="29" fill="none" stroke="#1E1C1A" stroke-width="1.5"/><circle cx="38" cy="38" r="22" fill="url(#asm_tilt_b_dish)"/><circle cx="38" cy="38" r="22" fill="none" stroke="#000" stroke-opacity=".3" stroke-width="1"/></g></g></symbol><symbol id="pill-idle" viewBox="0 0 140 64"><defs><linearGradient id="pill_idle_face" x1="0" y1="0" x2="0" y2="1"><stop offset="0" stop-color="#5C5C5C"/><stop offset="1" stop-color="#464646"/></linearGradient><filter id="pill_idle_sh" x="-40%" y="-40%" width="180%" height="180%"><feDropShadow dx="0" dy="1.6" stdDeviation="1" flood-color="#000" flood-opacity="0.28"/></filter></defs><g transform="rotate(-20 70 30)"><rect x="20" y="20" width="100" height="21" rx="3" fill="#000" opacity=".12"/><g transform="translate(0 0)" filter="url(#pill_idle_sh)"><rect x="20" y="19" width="100" height="21" rx="3" fill="url(#pill_idle_face)"/><rect x="20" y="19" width="100" height="21" rx="3" fill="none" stroke="#262626" stroke-width="1.2"/><rect x="21.5" y="20.5" width="97" height="1.4" fill="#fff" opacity=".14"/></g></g></symbol><symbol id="pill-pressed" viewBox="0 0 140 64"><defs><linearGradient id="pill_pressed_face" x1="0" y1="0" x2="0" y2="1"><stop offset="0" stop-color="#3E3E3E"/><stop offset="1" stop-color="#2E2E2E"/></linearGradient><filter id="pill_pressed_sh" x="-40%" y="-40%" width="180%" height="180%"><feDropShadow dx="0" dy="0.5" stdDeviation="1" flood-color="#000" flood-opacity="0.28"/></filter></defs><g transform="rotate(-20 70 30)"><rect x="20" y="20" width="100" height="21" rx="3" fill="#000" opacity=".12"/><g transform="translate(0 2.5)" filter="url(#pill_pressed_sh)"><rect x="20" y="19" width="100" height="21" rx="3" fill="url(#pill_pressed_face)"/><rect x="20" y="19" width="100" height="21" rx="3" fill="none" stroke="#262626" stroke-width="1.2"/><rect x="21" y="20" width="98" height="5" fill="#000" opacity=".16"/></g></g></symbol><symbol id="led-off" viewBox="0 0 40 40"><defs><linearGradient id="led_off_g" x1="0" y1="0" x2="0" y2="1"><stop offset="0" stop-color="#7C4444"/><stop offset="1" stop-color="#4E2626"/></linearGradient></defs><circle cx="20" cy="20" r="11" fill="#000" opacity=".1"/><circle cx="20" cy="20" r="9" fill="url(#led_off_g)"/><circle cx="20" cy="20" r="9" fill="none" stroke="#000" stroke-opacity=".3" stroke-width="1.2"/></symbol><symbol id="led-on" viewBox="0 0 40 40"><defs><linearGradient id="led_on_g" x1="0" y1="0" x2="0" y2="1"><stop offset="0" stop-color="#E8463C"/><stop offset="1" stop-color="#B31E1E"/></linearGradient><filter id="led_on_glow" x="-100%" y="-100%" width="300%" height="300%"><feGaussianBlur stdDeviation="3"/></filter></defs><circle cx="20" cy="20" r="11" fill="#000" opacity=".1"/><circle cx="20" cy="20" r="10" fill="#E8463C" opacity=".28" filter="url(#led_on_glow)"/><circle cx="20" cy="20" r="9" fill="url(#led_on_g)"/><circle cx="20" cy="20" r="9" fill="none" stroke="#000" stroke-opacity=".3" stroke-width="1.2"/><circle cx="20" cy="20" r="4" fill="#F58274" opacity=".7"/></symbol><symbol id="screen-off" viewBox="0 0 520 300"><defs><linearGradient id="screen_off_bez" x1="0" y1="0" x2="0" y2="1"><stop offset="0" stop-color="#434343"/><stop offset="1" stop-color="#333333"/></linearGradient><linearGradient id="screen_off_lcd" x1="0" y1="0" x2="0" y2="1"><stop offset="0" stop-color="#8B9469"/><stop offset="1" stop-color="#767F55"/></linearGradient><pattern id="screen_off_dots" width="4" height="4" patternUnits="userSpaceOnUse"><rect y="3" width="4" height="1" fill="#000" opacity=".07"/><rect x="3" width="1" height="4" fill="#000" opacity=".05"/></pattern></defs><rect x="4" y="4" width="512" height="292" rx="10" fill="url(#screen_off_bez)"/><rect x="4" y="4" width="512" height="292" rx="10" fill="none" stroke="#545454" stroke-width="1.2"/><rect x="228" y="9" width="64" height="8" rx="2" fill="#242424"/><rect x="36" y="34" width="448" height="212" rx="2" fill="#1C1C1C"/><rect x="38" y="36" width="444" height="208" rx="1" fill="url(#screen_off_lcd)"/><rect x="38" y="36" width="444" height="208" rx="1" fill="url(#screen_off_dots)"/><rect x="38" y="36" width="444" height="208" rx="1" fill="none" stroke="#000" stroke-opacity=".3" stroke-width="1.5"/><line x1="60" y1="268" x2="160" y2="268" stroke="#6A6A6A" stroke-width="1.2"/><line x1="360" y1="268" x2="460" y2="268" stroke="#6A6A6A" stroke-width="1.2"/><text x="260" y="272" font-family="Arial, 'Helvetica Neue', Helvetica, sans-serif" font-size="11" letter-spacing="3.2" text-anchor="middle" fill="#9A9A9A">DOT MATRIX WITH STEREO SOUND</text></symbol><symbol id="screen-on" viewBox="0 0 520 300"><defs><linearGradient id="screen_on_bez" x1="0" y1="0" x2="0" y2="1"><stop offset="0" stop-color="#434343"/><stop offset="1" stop-color="#333333"/></linearGradient><linearGradient id="screen_on_lcd" x1="0" y1="0" x2="0" y2="1"><stop offset="0" stop-color="#9FBB0C"/><stop offset="1" stop-color="#8AA503"/></linearGradient><pattern id="screen_on_dots" width="4" height="4" patternUnits="userSpaceOnUse"><rect y="3" width="4" height="1" fill="#000" opacity=".07"/><rect x="3" width="1" height="4" fill="#000" opacity=".05"/></pattern></defs><rect x="4" y="4" width="512" height="292" rx="10" fill="url(#screen_on_bez)"/><rect x="4" y="4" width="512" height="292" rx="10" fill="none" stroke="#545454" stroke-width="1.2"/><rect x="228" y="9" width="64" height="8" rx="2" fill="#242424"/><rect x="36" y="34" width="448" height="212" rx="2" fill="#1C1C1C"/><rect x="38" y="36" width="444" height="208" rx="1" fill="url(#screen_on_lcd)"/><rect x="38" y="36" width="444" height="208" rx="1" fill="url(#screen_on_dots)"/><rect x="38" y="36" width="444" height="208" rx="1" fill="none" stroke="#000" stroke-opacity=".3" stroke-width="1.5"/><line x1="60" y1="268" x2="160" y2="268" stroke="#6A6A6A" stroke-width="1.2"/><line x1="360" y1="268" x2="460" y2="268" stroke="#6A6A6A" stroke-width="1.2"/><text x="260" y="272" font-family="Arial, 'Helvetica Neue', Helvetica, sans-serif" font-size="11" letter-spacing="3.2" text-anchor="middle" fill="#9A9A9A">DOT MATRIX WITH STEREO SOUND</text></symbol><symbol id="label-move" viewBox="0 0 140 22"><text x="70" y="14" font-family="Arial, 'Helvetica Neue', Helvetica, sans-serif" font-size="12" letter-spacing="2.4" font-weight="600" text-anchor="middle" fill="#8B8678">MOVE</text></symbol></svg>