<svg xmlns="http://www.w3.org/2000/svg" viewBox="0 0 140 140" width="140" height="140" role="img" aria-label="stick-idle"><defs><linearGradient id="asm_idle_p_ring" x1="0" y1="0" x2="0" y2="1"><stop offset="0" stop-color="#E9E5DB"/><stop offset="1" stop-color="#CBC6B9"/></linearGradient><linearGradient id="asm_idle_p_well" x1="0" y1="0" x2="0" y2="1"><stop offset="0" stop-color="#ABA69A"/><stop offset="1" stop-color="#C0BBAE"/></linearGradient></defs><circle cx="70" cy="70" r="52" fill="url(#asm_idle_p_ring)"/><circle cx="70" cy="70" r="47" fill="#CBC6B9"/><circle cx="70" cy="70" r="42" fill="url(#asm_idle_p_well)"/><circle cx="70" cy="70" r="42" fill="none" stroke="#000" stroke-opacity=".16" stroke-width="2"/><circle cx="70" cy="70" r="47" fill="none" stroke="#fff" stroke-opacity=".35" stroke-width="1"/><g transform="translate(32 32)"><defs><linearGradient id="asm_idle_b_body" x1="0" y1="0" x2="0" y2="1"><stop offset="0" stop-color="#4C4A45"/><stop offset="1" stop-color="#332F2C"/></linearGradient><linearGradient id="asm_idle_b_dish" x1="0" y1="0" x2="0" y2="1"><stop offset="0" stop-color="#454239"/><stop offset="1" stop-color="#514E47"/></linearGradient><filter id="asm_idle_b_sh" x="-40%" y="-40%" width="180%" height="180%"><feDropShadow dx="0" dy="2" stdDeviation="1.4" flood-color="#000" flood-opacity="0.3"/></filter></defs><ellipse cx="38" cy="44" rx="27" ry="11" fill="#000" opacity=".2"/><g transform="translate(0 0) translate(38 38) scale(1) translate(-38 -38)" filter="url(#asm_idle_b_sh)"><circle cx="38" cy="38" r="29" fill="url(#asm_idle_b_body)"/><circle cx="38" cy="38" r="29" fill="none" stroke="#1E1C1A" stroke-width="1.5"/><circle cx="38" cy="38" r="22" fill="url(#asm_idle_b_dish)"/><circle cx="38" cy="38" r="22" fill="none" stroke="#000" stroke-opacity=".3" stroke-width="1"/></g></g></svg>